<svg xmlns="http://www.w3.org/2000/svg" width="55.379" height="40.69" viewBox="0 0 55.379 40.69"><defs><style>.a{fill:#fff;}</style></defs><g transform="translate(-3.026 46.29) rotate(-90)"><g transform="translate(5.6 3.026)"><path class="a" d="M40.67,8.129a4.905,4.905,0,0,1,2.134,1,7.5,7.5,0,0,1,1.707,1.921,10.4,10.4,0,0,1,1.138,2.561,9.978,9.978,0,0,1,.427,2.917l.213,26.534a13.093,13.093,0,0,1-.356,2.917,10.238,10.238,0,0,1-1.067,2.561,6.471,6.471,0,0,1-1.636,1.992,5.41,5.41,0,0,1-2.063,1.138l-25.04,6.473a8.332,8.332,0,0,1-3.486.142,7.107,7.107,0,0,1-3.059-1.423,7.793,7.793,0,0,1-2.205-2.774,8.564,8.564,0,0,1-.854-3.913L5.6,12.113a10.557,10.557,0,0,1,.711-4.055A8.48,8.48,0,0,1,8.445,5,8.094,8.094,0,0,1,11.5,3.292a8.534,8.534,0,0,1,3.557-.142Zm4.766,35.141-.213-26.747a9.567,9.567,0,0,0-.356-2.49,9.667,9.667,0,0,0-.925-2.134,6.377,6.377,0,0,0-1.423-1.636,4.566,4.566,0,0,0-1.778-.854L15.132,4.857A6,6,0,0,0,12.145,5a6.687,6.687,0,0,0-2.49,1.423,6.233,6.233,0,0,0-1.707,2.49,7.373,7.373,0,0,0-.569,3.343l.782,37.7a7.569,7.569,0,0,0,.711,3.2,7.326,7.326,0,0,0,1.778,2.348,6.258,6.258,0,0,0,2.49,1.209,5.81,5.81,0,0,0,2.917-.071l25.111-6.189a4.745,4.745,0,0,0,1.778-.925A6.155,6.155,0,0,0,44.3,47.894a9.667,9.667,0,0,0,.925-2.134,14.1,14.1,0,0,0,.213-2.49" transform="translate(-5.6 -3.026)"/></g><g transform="translate(13.923 11.185)"><path class="a" d="M43.336,17.273A2.8,2.8,0,0,1,45.4,18.7a3.966,3.966,0,0,1,.64,1.352,5.548,5.548,0,0,1,.213,1.565l.213,23.546a5.925,5.925,0,0,1-.213,1.565,7.71,7.71,0,0,1-.569,1.352,3.935,3.935,0,0,1-.854,1,2.418,2.418,0,0,1-1.067.5L22.422,53.837a3.477,3.477,0,0,1-1.707-.071,4.012,4.012,0,0,1-1.423-.783,3.436,3.436,0,0,1-1-1.423,7.794,7.794,0,0,1-.427-1.85L17.3,19.052a4.213,4.213,0,0,1,.356-1.921,5.288,5.288,0,0,1,.925-1.494A3.79,3.79,0,0,1,20,14.712a2.782,2.782,0,0,1,1.707-.142ZM45.541,45.23l-.213-23.76a5.491,5.491,0,0,0-.142-1.067,2.2,2.2,0,0,0-.427-.925,1.4,1.4,0,0,0-.64-.64,1.492,1.492,0,0,0-.783-.285l-21.7-2.561a2.028,2.028,0,0,0-1.138.142,2.166,2.166,0,0,0-.925.64,2.984,2.984,0,0,0-.64,1,4.028,4.028,0,0,0-.213,1.28l.569,30.3a2.79,2.79,0,0,0,.285,1.28,2.166,2.166,0,0,0,.64.925,2.51,2.51,0,0,0,.925.569,2.983,2.983,0,0,0,1.138.071L43.62,48.217a1.9,1.9,0,0,0,1.352-1.067c.142-.285.285-.569.427-.925a4.2,4.2,0,0,0,.142-1" transform="translate(-17.3 -14.496)"/></g></g></svg>