<?xml version="1.0" standalone="no"?>
<!DOCTYPE svg PUBLIC "-//W3C//DTD SVG 1.1//EN" "http://www.w3.org/Graphics/SVG/1.1/DTD/svg11.dtd" >
<svg xmlns="http://www.w3.org/2000/svg" xmlns:xlink="http://www.w3.org/1999/xlink" version="1.1">
<metadata>
Created by FontForge 20170731 at Tue Mar 16 18:31:55 2021
 By Aleksey,,,
Type Juice (c) 2020
</metadata>
<defs>
<font id="JoyrideExtended" horiz-adv-x="2203" >
  <font-face 
    font-family="Joyride Extended"
    font-weight="400"
    font-stretch="normal"
    units-per-em="2048"
    panose-1="0 0 0 0 0 0 0 0 0 0"
    ascent="1638"
    descent="-410"
    x-height="1383"
    cap-height="1383"
    bbox="-70 -497 4631 1892"
    underline-thickness="102"
    underline-position="-307"
    unicode-range="U+000A-F000"
  />
<missing-glyph horiz-adv-x="1079" 
d="M102 1434h875v-1434h-875v1434zM160 1393l379 -633l381 633h-760zM514 717l-369 614v-1231zM541 674l-379 -631h758zM565 717l371 -621v1239z" />
    <glyph glyph-name=".notdef" horiz-adv-x="1079" 
d="M102 1434h875v-1434h-875v1434zM160 1393l379 -633l381 633h-760zM514 717l-369 614v-1231zM541 674l-379 -631h758zM565 717l371 -621v1239z" />
    <glyph glyph-name=".null" horiz-adv-x="0" 
 />
    <glyph glyph-name=".null" horiz-adv-x="0" 
 />
    <glyph glyph-name="nonmarkingreturn" horiz-adv-x="682" 
 />
    <glyph glyph-name="LF" unicode="&#xa;" horiz-adv-x="0" 
 />
    <glyph glyph-name="controlCR" unicode="&#xd;" horiz-adv-x="0" 
 />
    <glyph glyph-name="space" unicode=" " horiz-adv-x="1110" 
 />
    <glyph glyph-name="exclam" unicode="!" horiz-adv-x="761" 
d="M629 553h-498v831h498v-831zM629 -1h-498v333h498v-333z" />
    <glyph glyph-name="quotedbl" unicode="&#x22;" horiz-adv-x="825" 
d="M80 1106v277h277v-277l-97 -221h-83zM467 1383h277v-277l-97 -221h-83l-97 221v277z" />
    <glyph glyph-name="numbersign" unicode="#" horiz-adv-x="1906" 
d="M1783 808h-291v-235h291v-332h-291v-242h-398v242h-282v-242h-399v242h-290v332h290v235h-290v332h290v242h399v-242h282v242h398v-242h291v-332zM1094 573v235h-282v-235h282z" />
    <glyph glyph-name="dollar" unicode="$" horiz-adv-x="2131" 
d="M2012 911h-498v42q0 105 -249 130v-227q295 -14 460 -67.5t245 -186.5q42 -69 42 -174q0 -106 -40 -184q-57 -112 -192 -180q-175 -88 -515 -104v-156h-399v157q-326 17 -481 88q-53 24 -97 56.5t-84 78.5t-62.5 108.5t-22.5 134.5v41h498v-41q0 -106 249 -131v227
q-295 14 -460 67.5t-245 186.5q-42 69 -42 174q0 106 40 184q58 114 192 181q172 87 515 103v157h399v-158q327 -17 482 -88q53 -24 97 -56.5t83.5 -78t62 -107.5t22.5 -135v-42zM866 871v214q-131 -9 -190 -37t-59 -82q0 -51 56.5 -69.5t192.5 -25.5zM1514 413
q0 51 -56.5 69.5t-192.5 25.5v-214q131 9 190 37t59 82z" />
    <glyph glyph-name="percent" unicode="%" horiz-adv-x="2648" 
d="M2542 399q25 -50 27 -116q0 -96 -52 -160t-131 -100q-51 -23 -87 -34.5t-113 -21t-190 -9.5q-168 0 -248 16t-164 58q-94 47 -133 125q-26 52 -28 116q0 96 52.5 160.5t131.5 100.5q51 23 87 34.5t112.5 20.5t189.5 9q168 0 248.5 -16t164.5 -58q94 -47 133 -125z
M1996 187q60 0 111 10t85 32.5t34 53.5q0 86 -230 86q-60 0 -110.5 -10t-84.5 -32.5t-34 -53.5q0 -86 229 -86zM1041 850q-75 -34 -151.5 -49t-238.5 -15q-168 0 -248.5 16t-164.5 58q-94 47 -133 125q-25 50 -27 116q0 96 52 160t131 100q75 34 151.5 49t238.5 15
q168 0 248.5 -16t164.5 -58q93 -47 132 -124q26 -52 28 -117q0 -96 -52 -160t-131 -100zM422 1101q0 -86 229 -86q95 0 162 24.5t67 70.5q0 86 -229 86q-95 0 -162 -24.5t-67 -70.5zM1672 1384h489l-1179 -1384h-489z" />
    <glyph glyph-name="ampersand" unicode="&#x26;" horiz-adv-x="2861" 
d="M1909 412v444h865v-333h-366v-111q3 -83 -36 -154q-44 -81 -111 -136q-70 -58 -164 -92q-99 -34 -260 -34h-1157q-162 0 -261 34q-94 34 -164 92q-65 54 -110 136q-45 91 -34 182t65.5 168.5t131.5 111.5q-35 22 -66 60.5t-53 89.5t-20 118t34 133q35 73 111 136
q70 58 164 92q99 34 260 34h1437v-333h-1383q-52 0 -91 -26.5t-39 -70.5t39 -70.5t91 -26.5h830v-333h-889q-52 0 -90.5 -25.5t-38.5 -71.5q0 -45 38.5 -71t90.5 -26h1050q47 0 83.5 22t42.5 61z" />
    <glyph glyph-name="quotesingle" unicode="'" horiz-adv-x="438" 
d="M80 1383h277v-277l-97 -221h-83l-97 221v277z" />
    <glyph glyph-name="parenleft" unicode="(" horiz-adv-x="796" 
d="M601 157q65 -105 135 -165l1 -1l-208 -260q-109 90 -210 250q-86 137 -137 298q-61 195 -61 413t61 413q51 161 137 298q99 158 210 249l208 -260l1 1l-1 -1q-76 -67 -143 -177q-141 -233 -141 -523q0 -298 148 -535z" />
    <glyph glyph-name="parenright" unicode=")" horiz-adv-x="796" 
d="M613 1105q61 -195 61 -413t-61 -413q-51 -161 -137 -298q-101 -160 -210 -250l-208 260l1 1q70 60 135 165q148 237 148 535q0 290 -141 523q-68 112 -143 177l-1 1l1 -1l208 260q111 -91 210 -249q86 -137 137 -298z" />
    <glyph glyph-name="asterisk" unicode="*" horiz-adv-x="743" 
d="M666 1089l-127 -42l78 -108l-167 -122l-79 108l-79 -108l-168 122l79 108l-127 42l64 197l127 -41v134h208v-134l127 41z" />
    <glyph glyph-name="plus" unicode="+" horiz-adv-x="1284" 
d="M808 858h387v-332h-387v-388h-332v388h-388v332h388v387h332v-387z" />
    <glyph glyph-name="comma" unicode="," horiz-adv-x="405" 
d="M63 276h277v-277l-138 -222h-97l69 222h-111v277z" />
    <glyph glyph-name="hyphen" unicode="-" horiz-adv-x="1247" 
d="M1177 526h-1107v332h1107v-332z" />
    <glyph glyph-name="period" unicode="." horiz-adv-x="405" 
d="M340 -1h-277v277h277v-277z" />
    <glyph glyph-name="slash" unicode="/" horiz-adv-x="1466" 
d="M1024 1384h407l-983 -1385h-407z" />
    <glyph glyph-name="zero" unicode="0" horiz-adv-x="2355" 
d="M2177 1025q69 -135 69 -336t-68 -336q-38 -81 -98 -144.5t-137.5 -105.5t-163.5 -71t-189 -44t-201 -21t-212 -5q-136 -2 -252.5 7t-236.5 35.5t-214 70t-172.5 115.5t-124.5 168q-68 134 -68 333.5t68 333.5q46 96 124.5 168t172.5 115.5t214 70t236.5 35.5t252.5 8
q136 2 252.5 -7t236.5 -35.5t214 -70.5t172.5 -116t124.5 -168zM659 876q-21 -40 -29 -109.5t-1 -138.5l953 379q-132 85 -405 85q-419 0 -518 -216zM1695 501q21 40 29 110t2 140l-946 -376q139 -84 397 -84q232 0 352.5 54.5t165.5 155.5z" />
    <glyph glyph-name="one" unicode="1" horiz-adv-x="1005" 
d="M441 1383h421v-1383h-498v913h-282v291q112 7 206 54.5t153 124.5z" />
    <glyph glyph-name="two" unicode="2" horiz-adv-x="2136" 
d="M1973 758q-44 -75 -118.5 -129.5t-162.5 -84t-190.5 -48t-205 -24.5t-201.5 -10t-184.5 -9.5t-150.5 -17.5t-102 -38t-37 -68h1378v-332h-1876v276q0 96 10.5 148.5t31.5 95.5q40 80 122 135t183.5 79.5t220 40t234 18.5t223.5 12t189.5 22t130.5 48.5t49 92.5
q0 71 -102.5 98t-345.5 27q-232 0 -340 -35.5t-108 -117.5v-27h-498v41q0 73 22.5 135t62 107.5t83.5 78t97 56.5q207 94 681 94q498 0 714 -108q135 -68 192 -180q40 -78 40 -184q0 -120 -42 -192z" />
    <glyph glyph-name="three" unicode="3" horiz-adv-x="2125" 
d="M1822 692q52 -15 90.5 -48.5t57.5 -74t27 -75.5t8 -64q0 -105 -40 -183q-57 -113 -193 -181q-214 -107 -713 -107q-476 0 -681 93q-53 24 -97 56.5t-83.5 78t-62 107.5t-22.5 135v41h498v-27q0 -82 108 -117.5t340 -35.5q243 0 345.5 27t102.5 98q0 82 -96.5 110
t-351.5 28h-233v277h233q247 0 347.5 28.5t100.5 109.5q0 71 -102.5 98t-345.5 27q-233 0 -340.5 -35t-107.5 -117v-28h-498v41q0 73 22.5 135t62 107.5t83.5 78t97 56.5q207 94 681 94q497 0 713 -108q136 -68 193 -180q40 -78 40 -184q0 -29 -8.5 -63t-27 -73t-57 -73
t-90.5 -52z" />
    <glyph glyph-name="four" unicode="4" horiz-adv-x="2019" 
d="M1752 497h166v-332h-166v-166h-498v166h-1162v385l1162 832v1h1l2 1l2 -1h493v-886zM1254 497v447l-624 -447h624z" />
    <glyph glyph-name="five" unicode="5" horiz-adv-x="2142" 
d="M1985 650q23 -46 31.5 -88t8.5 -106q0 -131 -40 -210q-57 -112 -192 -180q-216 -108 -714 -108q-473 0 -680 94q-55 26 -97.5 54t-83.5 70t-63 101t-22 131h498q3 -22 15 -40.5t42.5 -38t78 -32.5t127.5 -21.5t185 -8.5q182 0 279 20t133 59.5t36 111.5q0 64 -39.5 101
t-137.5 55.5t-271 18.5q-224 0 -317.5 -16.5t-121.5 -51.5h-507v818h1843v-332h-1345v-145q171 32 448 32q498 0 714 -108q135 -68 192 -180z" />
    <glyph glyph-name="six" unicode="6" horiz-adv-x="2129" 
d="M1778 790q136 -68 193 -181q37 -74 40 -182q-3 -108 -40 -182q-57 -113 -193 -181q-214 -107 -713 -107q-140 0 -255 10t-205 27.5t-160.5 47t-121.5 63t-87.5 81.5t-59 96t-35.5 112.5t-17.5 126t-4.5 141.5v56q0 100 11.5 179t40 154t75.5 131t119.5 103t171 76.5
t231 45.5t297.5 16q499 0 713 -107q136 -68 193 -181q37 -74 40 -182h-501q0 81 -96 109.5t-349 28.5q-100 0 -166 -4t-119.5 -16t-82.5 -30t-48.5 -51t-25.5 -73.5t-6 -102.5q69 48 180 65.5t268 17.5q499 0 713 -107zM1065 289q130 0 207 5t131.5 20.5t77.5 42t29 70.5
q-6 44 -29 70.5t-77.5 42t-131.5 20.5t-207 5q-229 0 -338.5 -33t-109.5 -105t109.5 -105t338.5 -33z" />
    <glyph glyph-name="seven" unicode="7" horiz-adv-x="1828" 
d="M88 1383h1660v-333l-1120 -1050h-533l1121 1051h-1128v332z" />
    <glyph glyph-name="eight" unicode="8" horiz-adv-x="2125" 
d="M1810 729q35 -12 67 -33t63 -56t50 -90.5t19 -124.5q0 -84 -27 -152t-73 -116.5t-116 -84.5t-148 -58t-177.5 -35.5t-194.5 -18.5t-210 -5t-210 5t-194.5 18.5t-177.5 35.5t-148 58t-116 84.5t-73 116.5t-27 152q0 69 19 124.5t50 90.5t63 56t67 33q-68 23 -117 85.5
t-49 149.5q0 47 6.5 86.5t29.5 88.5t61.5 87t108 76t163 63t233 40.5t311.5 15.5t311.5 -15.5t233 -40.5t163 -63t108 -76t61.5 -87t29.5 -88.5t6.5 -86.5q0 -87 -49 -149.5t-117 -85.5zM1063 287q236 0 342 32.5t106 105.5q0 71 -102 97.5t-346 26.5t-346 -26.5t-102 -97.5
q0 -73 106 -105.5t342 -32.5zM1063 826q61 0 91.5 0.5t82.5 2t78.5 5t64 9.5t56.5 16.5t39 24.5t28 34.5t8 45.5q0 31 -22 54t-57.5 35.5t-80.5 21.5t-91.5 10.5t-90.5 3.5t-78 0h-28h-28q-25 1 -56.5 0t-65.5 -1t-69.5 -4t-68.5 -9t-62.5 -15t-51 -22.5t-34 -31.5
t-12.5 -42q0 -25 8 -45.5t28 -34.5t39 -24.5t56.5 -16.5t64 -9.5t78.5 -5t82.5 -2t91.5 -0.5z" />
    <glyph glyph-name="nine" unicode="9" horiz-adv-x="2129" 
d="M1065 1425q140 0 255 -10t205 -27.5t160.5 -47.5t121.5 -63.5t87.5 -81t59 -96t35.5 -113t17.5 -126t4.5 -141.5v-55q0 -100 -11.5 -179t-40 -154t-75.5 -131t-119.5 -103t-171 -76.5t-231 -45.5t-297.5 -16q-500 0 -714 107q-134 67 -192 181q-37 74 -40 182h500
q0 -82 97 -110.5t349 -28.5q100 0 166 4t119.5 16t82.5 30t48.5 51t25.5 73.5t6 102.5q-69 -48 -180 -65.5t-268 -17.5q-498 0 -714 108q-135 68 -192 180q-37 74 -40 182q3 109 40 183q57 113 192 180q216 108 714 108zM1065 816q229 0 338.5 33t109.5 105t-109.5 105.5
t-338.5 33.5q-130 0 -207.5 -5.5t-132 -21t-77.5 -42t-29 -70.5q6 -44 29 -70.5t78 -42t132 -20.5t207 -5z" />
    <glyph glyph-name="colon" unicode=":" horiz-adv-x="458" 
d="M367 913h-277v277h277v-277zM367 193h-277v277h277v-277z" />
    <glyph glyph-name="semicolon" unicode=";" horiz-adv-x="479" 
d="M377 913h-277v277h277v-277zM100 193v277h277v-277l-138 -221h-97l69 221h-111z" />
    <glyph glyph-name="less" unicode="&#x3c;" horiz-adv-x="915" 
d="M790 1383v-405l-405 -284l405 -292v-409l-692 498v408z" />
    <glyph glyph-name="equal" unicode="=" horiz-adv-x="1304" 
d="M1205 844h-1107v332h1107v-332zM1205 208h-1107v331h1107v-331z" />
    <glyph glyph-name="greater" unicode="&#x3e;" horiz-adv-x="915" 
d="M125 1383l692 -484v-408l-692 -498v409l405 292l-405 284v405z" />
    <glyph glyph-name="question" unicode="?" horiz-adv-x="2060" 
d="M1272 0h-499v332h499v-332zM1929 1138q40 -78 40 -184q0 -105 -42 -174q-64 -105 -168.5 -146.5t-349.5 -88.5q-37 -7 -56 -11q-81 -20 -81 -77v-42h-499v57q0 104 43 174q51 84 130.5 127.5t214.5 71.5q134 28 229 47q81 20 81 77q0 71 -102.5 98t-345.5 27
q-229 0 -339 -33.5t-110 -105.5v-41h-498v41q0 72 22.5 134.5t62.5 108t84 78t97 56.5q207 94 681 94q498 0 714 -108q135 -68 192 -180z" />
    <glyph glyph-name="at" unicode="@" horiz-adv-x="2392" 
d="M616 380q57 -36 101 -57t110.5 -40t155.5 -27t214 -8h1005v-248h-1103q-137 0 -260 17.5t-209.5 46t-144.5 55.5t-95 55q-39 29 -62.5 47.5t-58 50.5t-55 60.5t-44.5 71.5t-37 89t-22 108.5t-9 133.5q0 157 82 283q121 183 454 311q216 83 612 83q106 0 225.5 -14.5
t268 -59t247.5 -112.5q33 -23 65 -49.5t75.5 -73t75.5 -95.5t54.5 -115.5t22.5 -134.5q0 -8 -0.5 -22t-7 -54t-19.5 -77.5t-43 -84t-72 -81.5q-80 -67 -174.5 -92.5t-167.5 -25.5h-603q-192 0 -283.5 18.5t-187.5 66.5q-30 15 -59 37t-58.5 55.5t-47.5 81t-18 101.5
q0 109 59.5 183t149.5 115q85 39 172 56t273 17q137 0 240.5 -13.5t161.5 -31t100.5 -49t57.5 -52t34 -55.5q11 -20 17.5 -40.5t9 -52t3 -46.5t0 -61.5t-0.5 -59.5q59 0 71 5q26 10 32 70q2 27 2 74q0 196 -128 279q-98 63 -239 97t-305 34q-244 0 -379.5 -28t-257.5 -104
q-168 -105 -168 -326q0 -111 40 -183.5t128 -128.5zM1197 583q147 0 181 6q63 12 76 60q5 18 5 43q0 36 -12.5 57t-49 29.5t-64.5 10t-97 1.5h-39q-69 0 -126.5 -11t-96 -36.5t-38.5 -61.5t39.5 -59t94.5 -31t127 -8z" />
    <glyph glyph-name="A" unicode="A" horiz-adv-x="3698" 
d="M3001 -2l-193 168h-1918l-194 -168h-692l1596 1383h505l1588 -1383h-692zM1274 498h1152l-574 499z" />
    <glyph glyph-name="B" unicode="B" horiz-adv-x="3651" 
d="M3475 1121q32 -66 34 -132.5t-20 -117.5t-52.5 -89t-65.5 -60q76 -34 130.5 -110.5t65.5 -168t-34 -181.5q-47 -84 -110 -136q-70 -58 -164 -92q-99 -34 -259 -34h-2859v1383h2801q160 0 259 -34q96 -35 164 -91q73 -61 110 -137zM2888 1051h-2249v-193h2249
q52 0 90.5 26t38.5 70t-39 70.5t-90 26.5zM2946 332q52 0 91 26t39 71q0 46 -39 71.5t-91 25.5h-2307v-194h2307z" />
    <glyph glyph-name="C" unicode="C" horiz-adv-x="3842" 
d="M3239 526h526q-17 -101 -54 -173q-195 -413 -993 -407q-1 0 -784 0.5t-784 0.5q-800 -9 -1000 411q-68 134 -68 333.5t68 333.5q200 420 1000 412h1568q794 6 993 -412q37 -70 54 -168h-528q-1 2 -3.5 9t-4.5 10q-47 103 -165 159t-345 57h-1569q-419 0 -518 -216
q-33 -63 -33 -184t33 -184q99 -217 518 -217h1568q228 1 347.5 55.5t163.5 154.5q4 7 10 25z" />
    <glyph glyph-name="D" unicode="D" horiz-adv-x="3772" 
d="M3636 979q60 -127 60 -287t-60 -288q-67 -141 -199 -234q-126 -90 -307 -132q-163 -38 -368 -38h-2619v1383h2619q205 0 368 -38q181 -42 307 -132q132 -93 199 -234zM2729 332q227 0 348 90.5t121 269.5q0 181 -120.5 270t-348.5 89h-2088v-719h2088z" />
    <glyph glyph-name="E" unicode="E" horiz-adv-x="3516" 
d="M3408 1049h-2767v-194h2667v-332h-2667v-193h2767v-332h-3265v1383h3265v-332z" />
    <glyph glyph-name="F" unicode="F" horiz-adv-x="3426" 
d="M3360 1051h-2721v-193h2621v-332h-2621v-526h-498v1383h3219v-332z" />
    <glyph glyph-name="G" unicode="G" horiz-adv-x="3880" 
d="M3771 0h-404v99q-247 -152 -660 -152h-1557q-804 0 -1000 411q-68 134 -68 333.5t68 333.5q200 420 1000 412h1560q793 6 992 -412q31 -61 48 -139h-535q-32 64 -87.5 107.5t-161 71t-256.5 27.5h-1560q-419 0 -518 -216q-33 -63 -33 -184t33 -184q99 -216 518 -216h1560
q305 1 432 106h-1165v332h1790z" />
    <glyph glyph-name="H" unicode="H" horiz-adv-x="3770" 
d="M3129 1383h498v-1383h-498v526h-2490v-526h-498v1383h498v-525h2490v525z" />
    <glyph glyph-name="I" unicode="I" horiz-adv-x="3049" 
d="M2908 0h-2767v1383h2767v-1383z" />
    <glyph glyph-name="J" unicode="J" horiz-adv-x="3637" 
d="M3026 1383h498v-691q0 -190 -72 -337q-73 -149 -223 -246q-132 -85 -314 -121q-144 -29 -335 -29h-1591q-411 1 -643 149q-150 95 -226 246q-73 146 -73 338h498q0 -73 17 -131t41.5 -95.5t65.5 -64t75.5 -39.5t85.5 -20.5t81.5 -8.5t77.5 -1h1591q38 0 59 0.5t62 3.5
t67 9t64 18.5t62 30t51.5 45t43.5 62.5t26.5 84t10.5 107v691z" />
    <glyph glyph-name="K" unicode="K" horiz-adv-x="3770" 
d="M2756 0l-1733 573l-383 -112l1 -461h-498l-2 1383h250h248l1 -596l2031 596h1100l-2201 -649l2208 -734h-1022z" />
    <glyph glyph-name="L" unicode="L" horiz-adv-x="3407" 
d="M639 332h2730v-332h-3228v1383h498v-1051z" />
    <glyph glyph-name="M" unicode="M" horiz-adv-x="4122" 
d="M3355 1383h624v-1383h-498v922l-1201 -922h-439l-1202 922v-922h-498v1383h624l1295 -999z" />
    <glyph glyph-name="N" unicode="N" horiz-adv-x="3831" 
d="M3192 384v999h498v-1383h-644l-2407 922v-922h-498v1383h582z" />
    <glyph glyph-name="O" unicode="O" horiz-adv-x="3864" 
d="M3712 351q-196 -414 -1001 -406h-1566q-795 -8 -995 412q-68 134 -68 333t68 333q199 420 997 412h1564q800 9 1000 -412q69 -135 69 -336t-68 -336zM3229 874q-47 104 -167 160t-351 56h-1564q-417 -1 -515 -216q-33 -63 -33 -184t33 -184q99 -215 513 -216h1566
q232 0 352.5 54.5t165.5 155.5q33 63 33.5 186.5t-33.5 187.5z" />
    <glyph glyph-name="P" unicode="P" horiz-adv-x="3512" 
d="M3404 1071q48 -95 48 -198q0 -105 -48 -199q-46 -91 -132 -163q-83 -69 -194 -109q-113 -40 -239 -40h-2200v-362h-498v1383h2698q126 0 239 -40q111 -40 194 -109q86 -72 132 -163zM2738 694q89 0 152 52.5t63 126.5t-63 126t-152 52h-2099v-357h2099z" />
    <glyph glyph-name="Q" unicode="Q" horiz-adv-x="3874" 
d="M3712 351q-30 -62 -70 -112l116 -98l-281 -234l-146 122q-240 -87 -620 -84h-1566q-795 -8 -995 412q-68 134 -68 333t68 333q199 420 997 412h1564q800 9 1000 -412q69 -135 69 -336t-68 -336zM2711 290q162 0 272 28l-144 120l282 235l130 -108q16 72 10 165.5
t-32 143.5q-47 104 -167 160t-351 56h-1564q-417 -1 -515 -216q-33 -63 -33 -184t33 -184q99 -215 513 -216h1566z" />
    <glyph glyph-name="R" unicode="R" horiz-adv-x="3641" 
d="M3001 0l-212 362h-2150v-362h-498v1383h2805q126 0 239 -40q111 -40 194 -109q86 -72 132 -163q48 -95 48 -198q0 -105 -48 -199q-46 -91 -132 -163q-33 -28 -88 -60l265 -451h-555zM639 1051v-357h2206q89 0 152 52.5t63 126.5t-63 126t-152 52h-2206z" />
    <glyph glyph-name="S" unicode="S" horiz-adv-x="3717" 
d="M3576 605q43 -68 43 -175q0 -105 -41 -183q-59 -113 -199 -181q-221 -107 -735 -107h-1577q-508 1 -726 107q-140 68 -199 181q-39 73 -41 170v45h516l-1 -3v-6.5v-6.5q0 -154 451 -155h1575q251 0 356.5 26.5t105.5 97.5q0 25 -14.5 42t-43 27t-72.5 16t-100.5 9
t-129.5 6q-67 2 -104 4h-1573q-135 3 -231.5 8t-196.5 15.5t-170.5 28.5t-136 46t-112 68t-80.5 94q-44 70 -44 175q0 104 42 183q58 112 199 180q223 108 735 108h1h1572q510 -1 729 -108q142 -69 200 -180q39 -74 41 -167v-47h-516v15q0 154 -454 155h-1572
q-251 0 -356 -26.5t-105 -97.5q0 -59 75 -75.5t292 -24.5q19 -1 29.5 -1.5t27.5 -1t31 -1.5h1573q166 -3 277.5 -9.5t225.5 -23t189.5 -44t139.5 -73t104 -110.5z" />
    <glyph glyph-name="T" unicode="T" horiz-adv-x="3471" 
d="M3432 1383v-332h-1447v-1051h-498v1051h-1448v332h3393z" />
    <glyph glyph-name="U" unicode="U" horiz-adv-x="3686" 
d="M2964 -12q-144 -29 -335 -29h-1576q-410 1 -642 149q-150 95 -226 246q-72 144 -72 338v691h498v-691q0 -57 10 -105t26 -83t42.5 -62.5t51 -45t60.5 -30.5t63.5 -19.5t66.5 -10t63 -4t59 -0.5h1576q38 0 59 0.5t62 3.5t67 9t64 18.5t62 30t51.5 45t43.5 62.5t26.5 84
t10.5 107v691h498v-691q0 -190 -72 -337q-73 -149 -223 -246q-132 -85 -314 -121z" />
    <glyph glyph-name="V" unicode="V" horiz-adv-x="3686" 
d="M2996 1383h691l-1595 -1383h-506l-1588 1383h692l1150 -999z" />
    <glyph glyph-name="W" unicode="W" horiz-adv-x="4638" 
d="M4110 1383h521l-1014 -1383h-462l-829 961l-830 -961h-461l-1029 1383h521l738 -960l830 960h461l830 -960z" />
    <glyph glyph-name="X" unicode="X" horiz-adv-x="3700" 
d="M3696 1383l-1401 -691l1401 -692h-875l-971 473l-966 -473h-880l1401 692l-1401 691h880l966 -469l971 469h875z" />
    <glyph glyph-name="Y" unicode="Y" horiz-adv-x="3786" 
d="M3088 1383h707l-1660 -896v-487h-498v487l-1645 896h698l1196 -615z" />
    <glyph glyph-name="Z" unicode="Z" horiz-adv-x="3807" 
d="M3714 332v-332h-3622v371l2432 680h-2432v332h3622v-370l-2444 -681h2444z" />
    <glyph glyph-name="bracketleft" unicode="[" horiz-adv-x="790" 
d="M697 1217h-221v-1052h221v-332h-554v1716h554v-332z" />
    <glyph glyph-name="backslash" unicode="\" horiz-adv-x="1466" 
d="M442 1384l983 -1385h-407l-983 1385h407z" />
    <glyph glyph-name="bracketright" unicode="]" horiz-adv-x="790" 
d="M92 1549h554v-1717h-554v332h222v1052h-222v333z" />
    <glyph glyph-name="asciicircum" unicode="^" horiz-adv-x="1482" 
d="M951 1383l484 -692h-405l-284 405l-292 -405h-409l498 692h408z" />
    <glyph glyph-name="underscore" unicode="_" horiz-adv-x="1251" 
d="M1179 -334h-1107v332h1107v-332z" />
    <glyph glyph-name="grave" unicode="`" horiz-adv-x="581" 
d="M371 1381l166 -249h-221l-277 249h332z" />
    <glyph glyph-name="a" unicode="a" 
d="M824 1383h555l814 -1383h-554l-97 166h-878l-99 -166h-555zM855 498h488l-243 414z" />
    <glyph glyph-name="b" unicode="b" horiz-adv-x="2103" 
d="M1927 1121q32 -66 34 -132.5t-20 -117.5t-53 -89t-66 -60q76 -34 130.5 -110.5t66 -168t-33.5 -181.5q-47 -84 -110 -136q-70 -58 -164 -92q-99 -34 -259 -34h-1311v1383h1253q160 0 259 -34q96 -35 164 -91q73 -61 110 -137zM1340 1051h-701v-193h701q52 0 90.5 26
t38.5 70t-39 70.5t-90 26.5zM1398 332q52 0 90.5 26t38.5 71q0 46 -38.5 71.5t-90.5 25.5h-759v-194h759z" />
    <glyph glyph-name="c" unicode="c" horiz-adv-x="2281" 
d="M1679 526h526q-17 -101 -54 -173q-38 -81 -98 -144.5t-137.5 -105.5t-163.5 -71t-189 -44t-201 -21t-212 -5q-136 -2 -252.5 7t-236.5 35.5t-214 70t-172.5 115.5t-124.5 168q-68 134 -68 333.5t68 333.5q46 96 124.5 168t172.5 115.5t214 69.5t236.5 35t252.5 8
q136 2 252.5 -7t237 -35.5t214.5 -70t172.5 -115.5t124.5 -168q35 -68 53 -168h-527q-1 2 -3.5 9t-4.5 10q-47 104 -167.5 160t-351.5 56q-419 0 -518 -216q-33 -63 -33 -184t33 -184q99 -217 518 -217q232 0 352.5 54.5t165.5 155.5q6 11 11 25z" />
    <glyph glyph-name="d" unicode="d" horiz-adv-x="2181" 
d="M2045 979q60 -128 60 -287q0 -160 -60 -288q-67 -141 -199 -234q-125 -89 -308 -132q-163 -38 -367 -38h-1028v1383h1028q204 0 367 -38q183 -43 308 -132q132 -93 199 -234zM1138 332q227 0 348 90.5t121 269.5q0 181 -120.5 270t-348.5 89h-497v-719h497z" />
    <glyph glyph-name="e" unicode="e" horiz-adv-x="1945" 
d="M1838 1051h-1199v-193h1099v-332h-1099v-194h1199v-332h-1697v1383h1697v-332z" />
    <glyph glyph-name="f" unicode="f" horiz-adv-x="1867" 
d="M1801 1051h-1162v-193h1063v-332h-1063v-526h-498v1383h1660v-332z" />
    <glyph glyph-name="g" unicode="g" horiz-adv-x="2328" 
d="M2219 0h-404v99q-125 -77 -287.5 -107t-377.5 -30q-114 0 -211.5 6.5t-200.5 22.5t-189 45.5t-163.5 72t-137.5 106t-98 143.5q-68 134 -68 333.5t68 333.5q46 96 124.5 168t172.5 115.5t214 70t236.5 35.5t252.5 8q136 2 252.5 -7t237 -35.5t214.5 -70.5t172.5 -116
t124.5 -168q31 -61 48 -139h-535q-24 48 -61.5 84t-97.5 64.5t-149 43t-206 14.5q-419 0 -518 -216q-33 -63 -33 -184t33 -184q99 -216 518 -216q313 0 441 106h-392v332h1016z" />
    <glyph glyph-name="h" unicode="h" horiz-adv-x="2201" 
d="M1561 1383h498v-1383h-498v526h-922v-526h-498v1383h498v-525h922v525z" />
    <glyph glyph-name="i" unicode="i" horiz-adv-x="782" 
d="M639 0h-498v1383h498v-1383z" />
    <glyph glyph-name="j" unicode="j" horiz-adv-x="2052" 
d="M1441 1383h498v-691q0 -192 -71 -337q-73 -149 -223 -246q-132 -85 -314 -121q-144 -29 -335 -29q-415 0 -650 149q-150 95 -226 246q-73 146 -73 338h498q0 -74 17.5 -133t42 -96t67.5 -63.5t76.5 -39.5t87.5 -19.5t82.5 -7.5t77.5 -1q37 0 58.5 0.5t62.5 3.5t67 9
t63.5 18.5t62 30t51.5 45t43 62.5t26.5 84t10.5 107v691z" />
    <glyph glyph-name="k" unicode="k" horiz-adv-x="2021" 
d="M1997 1383l-781 -610l787 -773h-653l-498 489l-211 -165v-324h-249h-249l-2 1383h250h248l1 -491l629 491h728z" />
    <glyph glyph-name="l" unicode="l" horiz-adv-x="1841" 
d="M639 332h1162v-332h-1660v1383h498v-1051z" />
    <glyph glyph-name="m" unicode="m" horiz-adv-x="2553" 
d="M1788 1383h624v-1383h-498v733l-418 -733h-439l-418 733v-733h-498v1383h624l511 -857z" />
    <glyph glyph-name="n" unicode="n" horiz-adv-x="2265" 
d="M1625 526v857h498v-1383h-645l-839 788v-788h-498v1383h582z" />
    <glyph glyph-name="o" unicode="o" horiz-adv-x="2301" 
d="M2151 351q-38 -81 -98 -144.5t-137.5 -105.5t-163.5 -71t-189 -44t-201 -21t-212 -5q-136 -2 -252.5 7t-236.5 35.5t-214 70.5t-172.5 116t-124.5 168q-68 134 -68 333t68 333q46 96 124.5 168t172.5 115.5t214 70t236.5 35.5t252.5 8q136 2 252.5 -7t237 -35.5
t214.5 -70.5t172.5 -116t124.5 -168q69 -136 68.5 -336.5t-68.5 -335.5zM1669 874q-47 104 -167.5 160t-351.5 56q-419 0 -518 -216q-33 -63 -33 -184t33 -184q99 -216 518 -216q232 0 352.5 54.5t165.5 155.5q33 63 34 186.5t-33 187.5z" />
    <glyph glyph-name="p" unicode="p" horiz-adv-x="1945" 
d="M1836 1071q48 -95 48 -198q0 -105 -48 -199q-47 -93 -131 -163q-82 -69 -195 -109t-239 -40h-632v-362h-498v1383h1130q126 0 239 -40t195 -109q84 -70 131 -163zM1170 694q89 0 152 52.5t63 126.5t-63 126t-152 52h-531v-357h531z" />
    <glyph glyph-name="q" unicode="q" horiz-adv-x="2312" 
d="M2151 351q-33 -70 -85 -130l96 -80l-282 -234l-145 120q-85 -36 -259.5 -51.5t-325.5 -15.5q-138 0 -253 9.5t-236 35.5t-214 69t-172 115t-125 168q-68 134 -68 333t68 333q200 420 1000 412q800 9 1001 -412q69 -136 68.5 -336.5t-68.5 -335.5zM1150 290q145 0 244 21
l-152 127l282 235l160 -133q22 72 18 176t-33 158q-47 104 -167.5 160t-351.5 56q-419 0 -518 -216q-33 -63 -33 -184t33 -184q99 -216 518 -216z" />
    <glyph glyph-name="r" unicode="r" horiz-adv-x="2080" 
d="M1440 0l-212 362h-589v-362h-498v1383h1244q126 0 239 -40t195 -109q84 -70 131 -163q48 -95 48 -198q0 -105 -48 -199q-47 -93 -131 -163q-31 -26 -89 -60l265 -451h-555zM639 1051v-357h645q89 0 152 52.5t63 126.5t-63 126t-152 52h-645z" />
    <glyph glyph-name="s" unicode="s" horiz-adv-x="2154" 
d="M2057 975v-35h-516q0 26 -0.5 36.5t-8 28.5t-22.5 31q-37 30 -114 43q-98 18 -316 18h-24q-206 0 -312 -21q-62 -13 -100.5 -40t-30.5 -75q4 -22 20.5 -37.5t45.5 -23.5t48 -11t52 -6q40 -4 296 -14q137 -3 234 -8t198 -15.5t172.5 -28.5t137.5 -46t113 -68.5t81 -94.5
q43 -68 43 -174q0 -105 -41 -183q-59 -113 -199 -181q-220 -107 -732 -107h-10q-270 0 -446 24t-289 79q-141 68 -200 181q-39 73 -41 166v35h516v-10.5v-11t0.5 -10t1 -10.5t1.5 -9.5t2.5 -9.5t4 -9t5.5 -9.5t7 -8t9 -8.5q36 -28 111 -42q104 -19 319 -19h9q208 0 309 19
q154 29 148 114q-2 24 -17.5 40.5t-45 25t-50 12t-53.5 6.5q-59 5 -298 15q-137 3 -234 7.5t-198 15.5t-172 29t-137 45.5t-113 68t-81 94.5q-44 70 -44 175q0 104 42 183q58 112 199 180q114 55 290 79.5t445 24.5h9q269 0 445 -24.5t290 -79.5q141 -68 199 -180
q40 -75 42 -166z" />
    <glyph glyph-name="t" unicode="t" horiz-adv-x="1904" 
d="M1865 1383v-332h-664v-1051h-498v1051h-664v332h1826z" />
    <glyph glyph-name="u" unicode="u" horiz-adv-x="2117" 
d="M1397 -12q-144 -29 -335 -29q-416 0 -651 149q-150 95 -226 246q-72 144 -72 338v691h498v-691q0 -74 17.5 -133t42 -96t67.5 -63.5t76.5 -39.5t87.5 -19.5t82.5 -7.5t77.5 -1q37 0 58.5 0.5t62.5 3.5t67 9t63.5 18.5t62 30t51.5 45t43 62.5t26.5 84t10.5 107v691h498
v-691q0 -192 -71 -337q-73 -148 -224 -246q-132 -85 -313 -121z" />
    <glyph glyph-name="v" unicode="v" horiz-adv-x="2142" 
d="M1576 1383h555l-812 -1383h-505l-804 1383h554l504 -870z" />
    <glyph glyph-name="w" unicode="w" horiz-adv-x="2867" 
d="M2321 1383h522l-537 -1383h-535l-338 765l-339 -765h-535l-536 1383h521l331 -792l337 792h442l337 -792z" />
    <glyph glyph-name="x" unicode="x" horiz-adv-x="2162" 
d="M2142 1383l-730 -691l730 -692h-663l-399 378l-398 -378h-664l731 692l-731 691h664l398 -377l399 377h663z" />
    <glyph glyph-name="y" unicode="y" horiz-adv-x="2050" 
d="M1432 1383h612l-771 -896v-487h-498v487l-771 896h613l407 -474z" />
    <glyph glyph-name="z" unicode="z" horiz-adv-x="2039" 
d="M1949 332v-332h-1859v332l1067 719h-1067v332h1859v-332l-1067 -719h1067z" />
    <glyph glyph-name="braceleft" unicode="{" horiz-adv-x="784" 
d="M549 1045v-89q0 -158 -82 -264q82 -106 82 -265v-88q0 -170 56 -246q32 -43 85 -43v-305q-99 0 -184.5 43.5t-145.5 123.5q-116 157 -116 427v88q0 56 -19 80q-26 32 -123 32v305q97 0 123 32q19 24 19 80v89q0 270 116 427q60 80 145 123t185 43v-305q-53 0 -85 -43
q-56 -76 -56 -245z" />
    <glyph glyph-name="verticalbar" unicode="|" horiz-adv-x="620" 
d="M476 -307h-333v1690h333v-1690z" />
    <glyph glyph-name="braceright" unicode="}" horiz-adv-x="784" 
d="M557 876q26 -32 123 -32v-305q-97 0 -123 -32q-19 -24 -19 -80v-88q0 -270 -116 -427q-60 -80 -145.5 -123.5t-184.5 -43.5v305q54 0 86 43q56 76 56 246v88q0 160 81 265q-81 105 -81 264v89q0 169 -56 245q-32 43 -86 43v305q100 0 185 -43t145 -123q116 -157 116 -427
v-89q0 -56 19 -80z" />
    <glyph glyph-name="asciitilde" unicode="~" horiz-adv-x="1452" 
d="M1157 892l235 -234q-87 -86 -187 -130q-91 -40 -196 -45q-5 0 -15 -0.5t-15 -0.5q-106 0 -298 49q-66 17 -103.5 25t-82 12t-74.5 -2.5t-62 -23.5t-63 -48l-235 235q84 84 184 128q91 39 194 44q54 2 117 -6t102 -16.5t105 -25.5q67 -17 105 -25t84 -12.5t76.5 2.5
t63.5 24.5t65 49.5z" />
    <glyph glyph-name="nonbreakingspace" unicode="&#xa0;" horiz-adv-x="1110" 
 />
    <glyph glyph-name="exclamdown" unicode="&#xa1;" horiz-adv-x="724" 
d="M611 -308h-498v830h498v-830zM611 744h-498v332h498v-332z" />
    <glyph glyph-name="cent" unicode="&#xa2;" horiz-adv-x="1714" 
d="M861 423q317 0 379 174h377q-13 -80 -42 -140q-54 -111 -162 -186q-104 -72 -250 -105q-48 -11 -111 -19v-147h-398v149q-63 10 -95 17q-145 33 -249 105q-108 75 -162 186q-50 103 -50 233q0 129 50 232q54 111 162 186q104 72 249 105q32 7 95 17v153h398v-151
q63 -8 111 -19q146 -33 250 -105q108 -75 162 -186q29 -60 42 -140h-376q-61 174 -380 174q-394 0 -394 -266q0 -267 394 -267z" />
    <glyph glyph-name="sterling" unicode="&#xa3;" horiz-adv-x="2121" 
d="M742 567q13 -138 -2 -231h1211v-337h-1561l-216 312q53 77 67 135t4 121h-149v235h111q0 304 237 467q121 84 301 123q158 35 377 35q177 0 328 -32q165 -35 287 -107q133 -78 207 -200q72 -119 72 -266h-498q0 56 -16 91.5t-54 66.5q-55 45 -127 60t-202 15
q-161 0 -240 -20.5t-118 -55.5q-24 -22 -35.5 -37.5t-18.5 -50.5t-2 -89h620v-235h-583z" />
    <glyph glyph-name="currency" unicode="&#xa4;" horiz-adv-x="1110" 
d="M899 545q-5 -13 -7 -16l124 -124l-176 -176l-124 124q-3 -1 -8 -3.5t-8 -3.5q-67 -29 -145 -29q-79 0 -146 29q-6 2 -16 8l-125 -125l-176 176l125 125l1 -1q-5 8 -8 16q-29 67 -29 146q0 78 29 145q2 6 8 18l-1 -2l-125 125l176 176l125 -125l-1 -1q14 7 17 8
q67 29 146 29q78 0 145 -29q3 -1 8 -3.5l7 -3.5l125 125l176 -176l-124 -125q4 -6 7 -16q29 -67 29 -145q0 -79 -29 -146zM555 566q52 0 88 36.5t36 88.5t-36 88t-88 36t-88.5 -36t-36.5 -88t36.5 -88.5t88.5 -36.5z" />
    <glyph glyph-name="yen" unicode="&#xa5;" horiz-adv-x="2103" 
d="M2072 1384l-690 -803h342v-139h-423v-110h423v-139h-423v-194h-499v194h-407v139h407v110h-407v139h326l-690 803h613l408 -474l407 474h613z" />
    <glyph glyph-name="section" unicode="&#xa7;" horiz-adv-x="1884" 
d="M1755 930h-428v36q0 61 -94.5 90t-291.5 29q-209 0 -297 -23t-88 -84q0 -50 61.5 -64t237.5 -21q55 -3 86 -4q114 -2 194.5 -6.5t165 -13.5t143.5 -24.5t113.5 -39.5t94 -59t67.5 -81q36 -58 36 -150q0 -91 -34 -158q-16 -30 -39 -58q17 -18 37 -51q36 -58 36 -150
q0 -91 -34 -158q-49 -96 -166 -155q-183 -92 -614 -92q-412 0 -585 80q-98 45 -163.5 125t-65.5 199v36h428v-36q0 -61 94.5 -90t291.5 -29q209 0 297 23t88 84q0 47 -65 65q-50 14 -245 22q-47 2 -75 3q-114 2 -194.5 6.5t-165 13.5t-143.5 24.5t-113.5 39.5t-94 59
t-67.5 81q-36 58 -36 150q0 90 34 157q17 33 39 59q-19 20 -37 50q-36 58 -36 150q0 91 34 158q49 96 166 155q185 93 614 93q413 0 586 -80q98 -45 163 -125t65 -200v-36zM576 612q-20 -20 -20 -50q0 -47 65 -65q50 -14 245 -22q47 -2 75 -3q247 -5 365 -20q20 20 20 50
q0 50 -61.5 64t-237.5 21q-55 3 -86 4q-238 5 -365 21z" />
    <glyph glyph-name="dieresis" unicode="&#xa8;" horiz-adv-x="720" 
d="M277 1158h-222v221h222v-221zM664 1158h-221v221h221v-221z" />
    <glyph glyph-name="copyright" unicode="&#xa9;" horiz-adv-x="866" 
d="M434 1114q-94 0 -94 -76t94 -76q76 0 90 49h89q-3 -23 -10 -39q-12 -32 -38 -53t-60 -30q-32 -9 -71 -9q-40 0 -72 9q-33 8 -59 30q-27 23 -39 53q-12 28 -12 66t12 66q12 30 39 53q26 22 59 30q32 9 72 9t71 -9q34 -9 60 -30t38 -53q7 -16 10 -40h-89q-14 50 -90 50z
M751 1173q27 -65 27 -135t-27 -135q-25 -61 -74 -110t-110 -74q-65 -27 -135 -27t-135 27q-61 25 -110 74t-74 110q-27 65 -27 135t27 135q25 61 74 110t110 74q65 27 135 27t135 -27q62 -25 110 -74q49 -49 74 -110zM432 775q109 0 186 77t77 186t-77 186t-186 77t-186 -77
t-77 -186t77 -186t186 -77z" />
    <glyph glyph-name="guillemotleft" unicode="&#xab;" horiz-adv-x="1212" 
d="M1078 1417v-484l-229 -241l229 -242v-484l-457 484v484zM109 450v484l456 483v-484l-228 -241l228 -242v-484z" />
    <glyph glyph-name="softhyphen" unicode="&#xad;" horiz-adv-x="0" 
 />
    <glyph glyph-name="registered" unicode="&#xae;" horiz-adv-x="866" 
d="M590 1038q-8 -20 -23 -35q-6 -6 -15 -12l46 -95h-97l-37 76h-97v-76h-87v291h211q25 0 42 -8q18 -7 34 -23t23 -34q9 -20 9 -42t-9 -42zM474 1042q16 0 26.5 11t10.5 27t-10.5 26.5t-26.5 10.5h-107v-75h107zM751 1173q27 -65 27 -135t-27 -135q-25 -61 -74 -110
t-110 -74q-65 -27 -135 -27t-135 27q-61 25 -110 74t-74 110q-27 65 -27 135t27 135q25 61 74 110t110 74q65 27 135 27t135 -27q62 -25 110 -74q49 -49 74 -110zM432 775q109 0 186 77t77 186t-77 186t-186 77t-186 -77t-77 -186t77 -186t186 -77z" />
    <glyph glyph-name="degree" unicode="&#xb0;" horiz-adv-x="653" 
d="M326 1498q106 0 181 -75t75 -181t-75 -181t-181 -75t-181 75t-75 181t75 181t181 75zM326 1166q32 0 54 22t22 54t-22.5 54.5t-53.5 22.5t-53.5 -22.5t-22.5 -54.5t22 -54t54 -22z" />
    <glyph glyph-name="plusminus" unicode="&#xb1;" horiz-adv-x="1202" 
d="M1080 -2h-971v292h971v-292zM752 1045h340v-291h-340v-340h-291v340h-340v291h340v340h291v-340z" />
    <glyph glyph-name="acute" unicode="&#xb4;" horiz-adv-x="581" 
d="M209 1381h332l-277 -249h-221z" />
    <glyph glyph-name="paragraph" unicode="&#xb6;" horiz-adv-x="1812" 
d="M586 1384h1130v-332h-166v-1359h-399v1359h-166v-1359h-399v860q-135 0 -250 55.5t-181.5 151t-66.5 208.5t66.5 208.5t181.5 151.5t250 56z" />
    <glyph glyph-name="cedilla" unicode="&#xb8;" horiz-adv-x="401" 
d="M61 0h277v-166l-138 -221h-97l69 221h-111v166z" />
    <glyph glyph-name="guillemotright" unicode="&#xbb;" horiz-adv-x="1212" 
d="M133 938v484l457 -484v-484l-457 -484v484l228 242zM645 1422l457 -484v-484l-457 -484v484l229 242l-229 242v484z" />
    <glyph glyph-name="questiondown" unicode="&#xbf;" horiz-adv-x="2027" 
d="M1272 748h-499v332h499v-332zM1471 125v41h498v-41q0 -73 -22.5 -135t-62 -107.5t-83.5 -78t-97 -56.5q-207 -94 -681 -94q-499 0 -715 108q-135 68 -192 180q-40 78 -40 184q0 105 42 174q27 45 66 79t74.5 54.5t106.5 41t117.5 30.5t153.5 30q12 2 19 3.5t18 3.5t20 4
q80 19 80 77v42h499v-57q0 -105 -42 -174q-51 -84 -130.5 -127.5t-214.5 -71.5t-230 -47q-81 -20 -81 -77q0 -71 102.5 -98t346.5 -27q229 0 338.5 33.5t109.5 105.5z" />
    <glyph glyph-name="Agrave" unicode="&#xc0;" 
d="M1251 1493h-266l-332 249h399zM1379 1383l814 -1383h-554l-97 166h-878l-99 -166h-555l814 1383h555zM855 498h488l-243 414z" />
    <glyph glyph-name="Aacute" unicode="&#xc1;" 
d="M1549 1745l-332 -250h-266l199 250h399zM1379 1383l814 -1383h-554l-97 166h-878l-99 -166h-555l814 1383h555zM855 498h488l-243 414z" />
    <glyph glyph-name="Acircumflex" unicode="&#xc2;" 
d="M968 1494h-329l-1 1l298 245h331l298 -245l-1 -1h-329l-133 110zM1379 1383l814 -1383h-554l-97 166h-878l-99 -166h-555l814 1383h555zM855 498h488l-243 414z" />
    <glyph glyph-name="Atilde" unicode="&#xc3;" 
d="M1070 1525q-96 24 -159 22t-114 -44l-166 139q63 52 130 76q63 22 137 25q87 3 230 -28q97 -25 161 -22.5t117 46.5l167 -139q-60 -51 -132 -77q-61 -23 -139 -26q-4 0 -11 -0.5t-11 -0.5q-77 0 -210 29zM1379 1383l814 -1383h-554l-97 166h-878l-99 -166h-555l814 1383
h555zM855 498h488l-243 414z" />
    <glyph glyph-name="Adieresis" unicode="&#xc4;" 
d="M1007 1509h-266v221h266v-221zM1472 1509h-266v221h266v-221zM1379 1383l814 -1383h-554l-97 166h-878l-99 -166h-555l814 1383h555zM855 498h488l-243 414z" />
    <glyph glyph-name="Aring" unicode="&#xc5;" 
d="M1101 1478q-103 0 -176 61t-73 146t73 146t176 61t176 -61t73 -146t-73 -146t-176 -61zM1101 1754q-34 0 -58.5 -20t-24.5 -49t24.5 -49t58.5 -20t58.5 20t24.5 49t-24.5 49t-58.5 20zM1379 1383l814 -1383h-554l-97 166h-878l-99 -166h-555l814 1383h555zM855 498h488
l-243 414z" />
    <glyph glyph-name="AE" unicode="&#xc6;" horiz-adv-x="2684" 
d="M2574 1384v-332h-996v-194h897v-333h-897v-193h996v-333h-1495v167h-417l-94 -167h-552l786 1385h1772zM1079 498v393l-3 5l-226 -398h229z" />
    <glyph glyph-name="Ccedilla" unicode="&#xc7;" horiz-adv-x="2281" 
d="M970 -276v166h331v-166l-166 -221h-116l83 221h-132zM1679 526h526q-17 -101 -54 -173q-38 -81 -98 -144.5t-137.5 -105.5t-163.5 -71t-189 -44t-201 -21t-212 -5q-136 -2 -252.5 7t-236.5 35.5t-214 70t-172.5 115.5t-124.5 168q-68 134 -68 333.5t68 333.5
q46 96 124.5 168t172.5 115.5t214 70t236.5 35.5t252.5 8q136 2 252.5 -7t237 -35.5t214.5 -70.5t172.5 -116t124.5 -168q35 -68 53 -168h-527q-1 2 -3.5 9t-4.5 10q-47 104 -167.5 160t-351.5 56q-419 0 -518 -216q-33 -63 -33 -184t33 -184q99 -217 518 -217
q232 0 352.5 54.5t165.5 155.5q6 11 11 25z" />
    <glyph glyph-name="Egrave" unicode="&#xc8;" horiz-adv-x="1947" 
d="M1144 1495h-266l-332 249h398zM1840 1052h-1199v-194h1100v-332h-1100v-194h1199v-331h-1697v1383h1697v-332z" />
    <glyph glyph-name="Eacute" unicode="&#xc9;" horiz-adv-x="1947" 
d="M1438 1744l-333 -249h-265l199 249h399zM1840 1052h-1199v-194h1100v-332h-1100v-194h1199v-331h-1697v1383h1697v-332z" />
    <glyph glyph-name="Ecircumflex" unicode="&#xca;" horiz-adv-x="1947" 
d="M863 1494h-329l-1 1l298 245h331l298 -245l-1 -1h-329l-134 110zM1840 1052h-1199v-194h1100v-332h-1100v-194h1199v-331h-1697v1383h1697v-332z" />
    <glyph glyph-name="Edieresis" unicode="&#xcb;" horiz-adv-x="1947" 
d="M896 1507h-266v221h266v-221zM1361 1507h-266v221h266v-221zM1840 1052h-1199v-194h1100v-332h-1100v-194h1199v-331h-1697v1383h1697v-332z" />
    <glyph glyph-name="Igrave" unicode="&#xcc;" horiz-adv-x="786" 
d="M642 0h-498v1383h498v-1383zM543 1491h-266l-332 249h398z" />
    <glyph glyph-name="Iacute" unicode="&#xcd;" horiz-adv-x="786" 
d="M642 0h-499v1383h499v-1383zM808 1729l-332 -249h-266l199 249h399z" />
    <glyph glyph-name="Icircumflex" unicode="&#xce;" horiz-adv-x="786" 
d="M641 0h-498v1383h498v-1383zM559 1741l298 -245l-1 -1h-329l-133 110l-134 -110h-329l-1 1l298 245h331z" />
    <glyph glyph-name="Idieresis" unicode="&#xcf;" horiz-adv-x="784" 
d="M641 0h-498v1383h498v-1383zM292 1491h-265v222h265v-222zM758 1491h-266v222h266v-222z" />
    <glyph glyph-name="Eth" unicode="&#xd0;" horiz-adv-x="2207" 
d="M2071 978q60 -128 60 -288t-60 -287q-66 -140 -199 -234q-127 -91 -308 -133q-154 -36 -367 -36h-959v524h-166v332h166v527h959q204 0 367 -38q181 -42 308 -133q133 -94 199 -234zM1163 331q227 0 348.5 90.5t121.5 268.5q0 181 -121 271t-349 90h-427v-195h565v-332
h-565v-193h427z" />
    <glyph glyph-name="Ntilde" unicode="&#xd1;" horiz-adv-x="2269" 
d="M1112 1525q-96 24 -158.5 22t-113.5 -44l-167 139q60 49 131 75q66 23 137 26q87 3 230 -28q97 -25 161 -23t117 46l167 -138q-60 -51 -132 -77q-64 -24 -139 -27h-22q-78 0 -211 29zM1627 1383h498v-1383h-645l-839 788v-788h-498v1383h582l902 -857v857z" />
    <glyph glyph-name="Ograve" unicode="&#xd2;" horiz-adv-x="2301" 
d="M1300 1533h-266l-332 249h399zM2151 1021q69 -136 68.5 -336.5t-68.5 -335.5q-38 -81 -98 -144t-137.5 -105t-163.5 -70.5t-189.5 -43t-201 -20t-211.5 -4.5q-137 -2 -253 7t-236.5 34.5t-214 68.5t-172 115t-124.5 168q-68 134 -68 333t68 333q57 119 160.5 201.5
t242 125t282 59.5t315.5 15q806 10 1001 -401zM1668 498q33 63 34 186.5t-33 187.5q-47 104 -167.5 160t-351.5 56q-419 0 -518 -216q-33 -63 -33 -184t33 -184q99 -216 518 -216q232 0 352.5 54.5t165.5 155.5z" />
    <glyph glyph-name="Oacute" unicode="&#xd3;" horiz-adv-x="2301" 
d="M1595 1782l-332 -249h-266l199 249h399zM2151 1021q69 -136 68.5 -336.5t-68.5 -335.5q-38 -81 -98 -144t-137.5 -105t-163.5 -70.5t-189.5 -43t-201 -20t-211.5 -4.5q-137 -2 -253 7t-236.5 34.5t-214 68.5t-172 115t-124.5 168q-68 134 -68 333t68 333
q57 119 160.5 201.5t242 125t282 59.5t315.5 15q806 10 1001 -401zM1668 498q33 63 34 186.5t-33 187.5q-47 104 -167.5 160t-351.5 56q-419 0 -518 -216q-33 -63 -33 -184t33 -184q99 -216 518 -216q232 0 352.5 54.5t165.5 155.5z" />
    <glyph glyph-name="Ocircumflex" unicode="&#xd4;" horiz-adv-x="2301" 
d="M1014 1537h-329h-1l298 245h331l298 -245h-1h-329l-133 109zM2151 1021q69 -136 68.5 -336.5t-68.5 -335.5q-38 -81 -98 -144t-137.5 -105t-163.5 -70.5t-189.5 -43t-201 -20t-211.5 -4.5q-137 -2 -253 7t-236.5 34.5t-214 68.5t-172 115t-124.5 168q-68 134 -68 333
t68 333q57 119 160.5 201.5t242 125t282 59.5t315.5 15q806 10 1001 -401zM1668 498q33 63 34 186.5t-33 187.5q-47 104 -167.5 160t-351.5 56q-419 0 -518 -216q-33 -63 -33 -184t33 -184q99 -216 518 -216q232 0 352.5 54.5t165.5 155.5z" />
    <glyph glyph-name="Otilde" unicode="&#xd5;" horiz-adv-x="2301" 
d="M1113 1564q-96 24 -159 22t-114 -44l-166 139q60 50 130 75q66 23 137 26q87 3 230 -28q97 -25 161.5 -23t117.5 46l166 -138q-60 -51 -132 -77q-64 -24 -139 -27h-21q-78 0 -211 29zM2151 1021q69 -136 68.5 -336.5t-68.5 -335.5q-38 -81 -98 -144t-137.5 -105
t-163.5 -70.5t-189.5 -43t-201 -20t-211.5 -4.5q-137 -2 -253 7t-236.5 34.5t-214 68.5t-172 115t-124.5 168q-68 134 -68 333t68 333q57 119 160.5 201.5t242 125t282 59.5t315.5 15q806 10 1001 -401zM1668 498q33 63 34 186.5t-33 187.5q-47 104 -167.5 160t-351.5 56
q-419 0 -518 -216q-33 -63 -33 -184t33 -184q99 -216 518 -216q232 0 352.5 54.5t165.5 155.5z" />
    <glyph glyph-name="Odieresis" unicode="&#xd6;" horiz-adv-x="2301" 
d="M1050 1544h-265v222h265v-222zM1515 1544h-265v222h265v-222zM2151 1021q69 -136 68.5 -336.5t-68.5 -335.5q-38 -81 -98 -144t-137.5 -105t-163.5 -70.5t-189.5 -43t-201 -20t-211.5 -4.5q-137 -2 -253 7t-236.5 34.5t-214 68.5t-172 115t-124.5 168q-68 134 -68 333
t68 333q57 119 160.5 201.5t242 125t282 59.5t315.5 15q806 10 1001 -401zM1668 498q33 63 34 186.5t-33 187.5q-47 104 -167.5 160t-351.5 56q-419 0 -518 -216q-33 -63 -33 -184t33 -184q99 -216 518 -216q232 0 352.5 54.5t165.5 155.5z" />
    <glyph glyph-name="multiply" unicode="&#xd7;" horiz-adv-x="1200" 
d="M1108 966l-274 -274l274 -274l-235 -235l-274 274l-274 -274l-235 235l274 274l-274 274l235 235l274 -274l274 274z" />
    <glyph glyph-name="Oslash" unicode="&#xd8;" horiz-adv-x="2314" 
d="M2157 1021q69 -136 68.5 -336.5t-68.5 -335.5q-38 -81 -98 -144t-137.5 -105t-163 -70.5t-189 -43t-201 -20t-211.5 -4.5q-133 -1 -212.5 0.5t-188 15.5t-190.5 42l-178 -148l-211 175l133 111q-101 84 -154 197q-68 134 -68 333t68 333q46 96 124.5 168.5t172.5 116.5
t214 71t237 36.5t253 8.5q386 4 590 -66l181 150l211 -175l-136 -113q101 -84 154 -197zM638 504q12 -26 29 -49l733 611q-104 22 -243 22q-420 0 -519 -216q-33 -63 -33 -184t33 -184zM1675 498q33 63 33.5 186.5t-33.5 187.5q-12 26 -28 49l-732 -610q103 -23 242 -23
q232 0 352.5 54.5t165.5 155.5z" />
    <glyph glyph-name="Ugrave" unicode="&#xd9;" horiz-adv-x="2117" 
d="M1206 1495h-266l-332 249h399zM1507 1383h498v-691q0 -192 -71 -337q-73 -148 -224 -246q-132 -85 -313 -121q-144 -29 -335 -29q-416 0 -651 149q-150 95 -226 246q-72 144 -72 338v691h498v-691q0 -74 17.5 -133t42 -96t67.5 -63.5t76.5 -39.5t87.5 -19.5t82.5 -7.5
t77.5 -1q37 0 58.5 0.5t62.5 3.5t67 9t63.5 18.5t62 30t51.5 45t43 62.5t26.5 84t10.5 107v691z" />
    <glyph glyph-name="Uacute" unicode="&#xda;" horiz-adv-x="2117" 
d="M1510 1745l-333 -249h-265l199 249h399zM1507 1383h498v-691q0 -192 -71 -337q-73 -148 -224 -246q-132 -85 -313 -121q-144 -29 -335 -29q-416 0 -651 149q-150 95 -226 246q-72 144 -72 338v691h498v-691q0 -74 17.5 -133t42 -96t67.5 -63.5t76.5 -39.5t87.5 -19.5
t82.5 -7.5t77.5 -1q37 0 58.5 0.5t62.5 3.5t67 9t63.5 18.5t62 30t51.5 45t43 62.5t26.5 84t10.5 107v691z" />
    <glyph glyph-name="Ucircumflex" unicode="&#xdb;" horiz-adv-x="2117" 
d="M925 1494h-329l-1 1l298 245h331l298 -245l-1 -1h-329l-133 110zM1507 1383h498v-691q0 -192 -71 -337q-73 -148 -224 -246q-132 -85 -313 -121q-144 -29 -335 -29q-416 0 -651 149q-150 95 -226 246q-72 144 -72 338v691h498v-691q0 -74 17.5 -133t42 -96t67.5 -63.5
t76.5 -39.5t87.5 -19.5t82.5 -7.5t77.5 -1q37 0 58.5 0.5t62.5 3.5t67 9t63.5 18.5t62 30t51.5 45t43 62.5t26.5 84t10.5 107v691z" />
    <glyph glyph-name="Udieresis" unicode="&#xdc;" horiz-adv-x="2117" 
d="M961 1510h-266v222h266v-222zM1426 1510h-266v222h266v-222zM1507 1383h498v-691q0 -192 -71 -337q-73 -148 -224 -246q-132 -85 -313 -121q-144 -29 -335 -29q-416 0 -651 149q-150 95 -226 246q-72 144 -72 338v691h498v-691q0 -74 17.5 -133t42 -96t67.5 -63.5
t76.5 -39.5t87.5 -19.5t82.5 -7.5t77.5 -1q37 0 58.5 0.5t62.5 3.5t67 9t63.5 18.5t62 30t51.5 45t43 62.5t26.5 84t10.5 107v691z" />
    <glyph glyph-name="Yacute" unicode="&#xdd;" horiz-adv-x="2050" 
d="M1466 1744l-332 -249h-266l199 249h399zM1433 1383h613l-772 -896v-487h-498v487l-772 896h613l408 -473z" />
    <glyph glyph-name="Thorn" unicode="&#xde;" horiz-adv-x="1865" 
d="M1756 889q48 -94 48 -199q0 -104 -48 -198q-47 -93 -131 -163q-82 -69 -195 -109q-115 -41 -239 -41h-549v-180h-499v1385h499v-182h549q124 0 239 -41q113 -40 195 -109q84 -70 131 -163zM1090 512q89 0 152 52.5t63 126.5t-63 126t-152 52h-448v-357h448z" />
    <glyph glyph-name="germandbls" unicode="&#xdf;" horiz-adv-x="1515" 
d="M1442 445q37 -90 19 -182t-88 -166q-136 -143 -362 -148h-11q-115 0 -223 39t-176 104l252 180q18 -17 61 -32t90 -14q70 1 107 42q38 39 17 87q-22 51 -92 66q-124 26 -214 74q-102 56 -145 137q-42 77 -27 167q11 70 63 153q67 108 26 165q-17 23 -48.5 35.5
t-63.5 12.5q-22 0 -34 -1t-32.5 -8t-32 -21t-26.5 -42.5t-22.5 -69t-13 -103t-5.5 -143.5v-775h-332v775q0 148 16 247q20 124 66 205q121 213 416 213q115 0 221 -45q110 -48 176 -137q23 -32 38.5 -69.5t23 -93t-11.5 -126.5t-67 -147q-14 -22 -21.5 -41t-7 -26t1.5 -12
q4 -6 16.5 -14t44 -20t75.5 -21q122 -26 207 -92q82 -64 119 -153z" />
    <glyph glyph-name="agrave" unicode="&#xe0;" 
d="M1251 1493h-266l-332 249h399zM1379 1383l814 -1383h-554l-97 166h-878l-99 -166h-555l814 1383h555zM855 498h488l-243 414z" />
    <glyph glyph-name="aacute" unicode="&#xe1;" 
d="M1549 1745l-332 -250h-266l199 250h399zM1379 1383l814 -1383h-554l-97 166h-878l-99 -166h-555l814 1383h555zM855 498h488l-243 414z" />
    <glyph glyph-name="acircumflex" unicode="&#xe2;" 
d="M968 1494h-329l-1 1l298 245h331l298 -245l-1 -1h-329l-133 110zM1379 1383l814 -1383h-554l-97 166h-878l-99 -166h-555l814 1383h555zM855 498h488l-243 414z" />
    <glyph glyph-name="atilde" unicode="&#xe3;" 
d="M1070 1525q-96 24 -159 22t-114 -44l-166 139q63 52 130 76q63 22 137 25q87 3 230 -28q97 -25 161 -22.5t117 46.5l167 -139q-60 -51 -132 -77q-61 -23 -139 -26q-4 0 -11 -0.5t-11 -0.5q-77 0 -210 29zM1379 1383l814 -1383h-554l-97 166h-878l-99 -166h-555l814 1383
h555zM855 498h488l-243 414z" />
    <glyph glyph-name="adieresis" unicode="&#xe4;" 
d="M1007 1509h-266v221h266v-221zM1472 1509h-266v221h266v-221zM1379 1383l814 -1383h-554l-97 166h-878l-99 -166h-555l814 1383h555zM855 498h488l-243 414z" />
    <glyph glyph-name="aring" unicode="&#xe5;" 
d="M1101 1478q-103 0 -176 61t-73 146t73 146t176 61t176 -61t73 -146t-73 -146t-176 -61zM1101 1754q-34 0 -58.5 -20t-24.5 -49t24.5 -49t58.5 -20t58.5 20t24.5 49t-24.5 49t-58.5 20zM1379 1383l814 -1383h-554l-97 166h-878l-99 -166h-555l814 1383h555zM855 498h488
l-243 414z" />
    <glyph glyph-name="ae" unicode="&#xe6;" horiz-adv-x="2684" 
d="M2574 1384v-332h-996v-194h897v-333h-897v-193h996v-333h-1495v167h-417l-94 -167h-552l786 1385h1772zM1079 498v393l-3 5l-226 -398h229z" />
    <glyph glyph-name="ccedilla" unicode="&#xe7;" horiz-adv-x="2281" 
d="M970 -276v166h331v-166l-166 -221h-116l83 221h-132zM1679 526h526q-17 -101 -54 -173q-46 -97 -124.5 -169t-172 -115t-214.5 -69t-237 -34.5t-253 -7.5q-136 -2 -252.5 7.5t-236.5 36.5t-214 71t-172.5 116.5t-124.5 168.5q-68 134 -68 333.5t68 333.5
q46 96 124.5 167.5t172 114.5t214.5 69t236.5 34.5t252.5 7.5q137 2 253 -7t236.5 -34.5t214.5 -68.5t172.5 -115t124.5 -168q35 -68 53 -168h-527q-1 2 -3.5 9t-4.5 10q-47 104 -167.5 160t-351.5 56q-419 0 -518 -216q-33 -63 -33 -184t33 -184q99 -217 518 -217
q232 0 352.5 54.5t165.5 155.5q6 11 11 25z" />
    <glyph glyph-name="egrave" unicode="&#xe8;" horiz-adv-x="1947" 
d="M1144 1495h-266l-332 249h398zM1840 1052h-1199v-194h1100v-332h-1100v-194h1199v-331h-1697v1383h1697v-332z" />
    <glyph glyph-name="eacute" unicode="&#xe9;" horiz-adv-x="1947" 
d="M1438 1744l-333 -249h-265l199 249h399zM1840 1052h-1199v-194h1100v-332h-1100v-194h1199v-331h-1697v1383h1697v-332z" />
    <glyph glyph-name="ecircumflex" unicode="&#xea;" horiz-adv-x="1947" 
d="M863 1494h-329l-1 1l298 245h331l298 -245l-1 -1h-329l-134 110zM1840 1052h-1199v-194h1100v-332h-1100v-194h1199v-331h-1697v1383h1697v-332z" />
    <glyph glyph-name="edieresis" unicode="&#xeb;" horiz-adv-x="1947" 
d="M896 1507h-266v221h266v-221zM1361 1507h-266v221h266v-221zM1840 1052h-1199v-194h1100v-332h-1100v-194h1199v-331h-1697v1383h1697v-332z" />
    <glyph glyph-name="igrave" unicode="&#xec;" horiz-adv-x="786" 
d="M642 0h-498v1383h498v-1383zM543 1491h-266l-332 249h398z" />
    <glyph glyph-name="iacute" unicode="&#xed;" horiz-adv-x="786" 
d="M642 0h-499v1383h499v-1383zM808 1729l-332 -249h-266l199 249h399z" />
    <glyph glyph-name="icircumflex" unicode="&#xee;" horiz-adv-x="786" 
d="M641 0h-498v1383h498v-1383zM559 1741l298 -245l-1 -1h-329l-133 110l-134 -110h-329l-1 1l298 245h331z" />
    <glyph glyph-name="idieresis" unicode="&#xef;" horiz-adv-x="784" 
d="M641 0h-498v1383h498v-1383zM292 1491h-265v222h265v-222zM758 1491h-266v222h266v-222z" />
    <glyph glyph-name="eth" unicode="&#xf0;" horiz-adv-x="2207" 
d="M2071 978q60 -128 60 -288t-60 -287q-66 -140 -199 -234q-127 -91 -308 -133q-154 -36 -367 -36h-959v524h-166v332h166v527h959q204 0 367 -38q181 -42 308 -133q133 -94 199 -234zM1163 331q227 0 348.5 90.5t121.5 268.5q0 181 -121 271t-349 90h-427v-195h565v-332
h-565v-193h427z" />
    <glyph glyph-name="ntilde" unicode="&#xf1;" horiz-adv-x="2269" 
d="M1112 1525q-96 24 -158.5 22t-113.5 -44l-167 139q60 49 131 75q66 23 137 26q87 3 230 -28q97 -25 161 -23t117 46l167 -138q-60 -51 -132 -77q-64 -24 -139 -27h-22q-78 0 -211 29zM1627 1383h498v-1383h-645l-839 788v-788h-498v1383h582l902 -857v857z" />
    <glyph glyph-name="ograve" unicode="&#xf2;" horiz-adv-x="2301" 
d="M1300 1533h-266l-332 249h399zM2151 1021q69 -136 68.5 -336.5t-68.5 -335.5q-38 -81 -98 -144.5t-137.5 -105.5t-163.5 -71t-189 -44t-201 -21t-212 -5q-136 -2 -252.5 7t-236.5 35.5t-214 70.5t-172.5 116t-124.5 168q-68 134 -68 333t68 333q46 96 124.5 168
t172.5 115.5t214 70t236.5 35.5t252.5 8q136 2 252.5 -7t237 -35.5t214.5 -70.5t172.5 -116t124.5 -168zM1668 498q33 63 34 186.5t-33 187.5q-47 104 -167.5 160t-351.5 56q-419 0 -518 -216q-33 -63 -33 -184t33 -184q99 -216 518 -216q232 0 352.5 54.5t165.5 155.5z" />
    <glyph glyph-name="oacute" unicode="&#xf3;" horiz-adv-x="2301" 
d="M1595 1782l-332 -249h-266l199 249h399zM2151 1021q69 -136 68.5 -336.5t-68.5 -335.5q-38 -81 -98 -144.5t-137.5 -105.5t-163.5 -71t-189 -44t-201 -21t-212 -5q-136 -2 -252.5 7t-236.5 35.5t-214 70.5t-172.5 116t-124.5 168q-68 134 -68 333t68 333q46 96 124.5 168
t172.5 115.5t214 70t236.5 35.5t252.5 8q136 2 252.5 -7t237 -35.5t214.5 -70.5t172.5 -116t124.5 -168zM1668 498q33 63 34 186.5t-33 187.5q-47 104 -167.5 160t-351.5 56q-419 0 -518 -216q-33 -63 -33 -184t33 -184q99 -216 518 -216q232 0 352.5 54.5t165.5 155.5z" />
    <glyph glyph-name="ocircumflex" unicode="&#xf4;" horiz-adv-x="2301" 
d="M1014 1537h-329h-1l298 245h331l298 -245h-1h-329l-133 109zM2151 1021q69 -136 68.5 -336.5t-68.5 -335.5q-38 -81 -98 -144.5t-137.5 -105.5t-163.5 -71t-189 -44t-201 -21t-212 -5q-136 -2 -252.5 7t-236.5 35.5t-214 70.5t-172.5 116t-124.5 168q-68 134 -68 333
t68 333q46 96 124.5 168t172.5 115.5t214 70t236.5 35.5t252.5 8q136 2 252.5 -7t237 -35.5t214.5 -70.5t172.5 -116t124.5 -168zM1668 498q33 63 34 186.5t-33 187.5q-47 104 -167.5 160t-351.5 56q-419 0 -518 -216q-33 -63 -33 -184t33 -184q99 -216 518 -216
q232 0 352.5 54.5t165.5 155.5z" />
    <glyph glyph-name="otilde" unicode="&#xf5;" horiz-adv-x="2301" 
d="M1113 1564q-96 24 -159 22t-114 -44l-166 139q60 50 130 75q66 23 137 26q87 3 230 -28q97 -25 161.5 -23t117.5 46l166 -138q-60 -51 -132 -77q-64 -24 -139 -27h-21q-78 0 -211 29zM2151 1021q69 -136 68.5 -336.5t-68.5 -335.5q-38 -81 -98 -144.5t-137.5 -105.5
t-163.5 -71t-189 -44t-201 -21t-212 -5q-136 -2 -252.5 7t-236.5 35.5t-214 70.5t-172.5 116t-124.5 168q-68 134 -68 333t68 333q46 96 124.5 168t172.5 115.5t214 70t236.5 35.5t252.5 8q136 2 252.5 -7t237 -35.5t214.5 -70.5t172.5 -116t124.5 -168zM1668 498
q33 63 34 186.5t-33 187.5q-47 104 -167.5 160t-351.5 56q-419 0 -518 -216q-33 -63 -33 -184t33 -184q99 -216 518 -216q232 0 352.5 54.5t165.5 155.5z" />
    <glyph glyph-name="odieresis" unicode="&#xf6;" horiz-adv-x="2301" 
d="M1050 1544h-265v222h265v-222zM1515 1544h-265v222h265v-222zM2151 1021q69 -136 68.5 -336.5t-68.5 -335.5q-38 -81 -98 -144.5t-137.5 -105.5t-163.5 -71t-189 -44t-201 -21t-212 -5q-136 -2 -252.5 7t-236.5 35.5t-214 70.5t-172.5 116t-124.5 168q-68 134 -68 333
t68 333q46 96 124.5 168t172.5 115.5t214 70t236.5 35.5t252.5 8q136 2 252.5 -7t237 -35.5t214.5 -70.5t172.5 -116t124.5 -168zM1668 498q33 63 34 186.5t-33 187.5q-47 104 -167.5 160t-351.5 56q-419 0 -518 -216q-33 -63 -33 -184t33 -184q99 -216 518 -216
q232 0 352.5 54.5t165.5 155.5z" />
    <glyph glyph-name="divide" unicode="&#xf7;" horiz-adv-x="1259" 
d="M1183 526h-1107v332h1107v-332zM629 941q-69 0 -117.5 48.5t-48.5 117.5t48.5 117.5t117.5 48.5t118 -48.5t49 -117.5t-49 -117.5t-118 -48.5zM629 110q-69 0 -117.5 48.5t-48.5 117.5t48.5 117.5t117.5 48.5t118 -48.5t49 -117.5t-49 -117.5t-118 -48.5z" />
    <glyph glyph-name="oslash" unicode="&#xf8;" horiz-adv-x="2314" 
d="M2157 1021q69 -136 68.5 -336.5t-68.5 -335.5q-38 -81 -98 -144.5t-137.5 -105.5t-163.5 -71t-189 -44t-200.5 -21t-211.5 -5q-192 -2 -332 9.5t-259 52.5l-178 -148l-211 175l133 111q-101 84 -154 197q-68 134 -68 333t68 333q46 96 124.5 168t172.5 115.5t214.5 70
t237 35.5t252.5 8q191 2 331 -9.5t259 -52.5l181 150l211 -175l-136 -113q101 -84 154 -197zM638 504q12 -26 29 -49l733 611q-104 22 -243 22q-420 0 -519 -216q-33 -63 -33 -184t33 -184zM1675 498q33 63 33.5 186.5t-33.5 187.5q-12 26 -28 49l-732 -610q103 -23 242 -23
q232 0 352.5 54.5t165.5 155.5z" />
    <glyph glyph-name="ugrave" unicode="&#xf9;" horiz-adv-x="2117" 
d="M1206 1495h-266l-332 249h399zM1507 1383h498v-691q0 -192 -71 -337q-73 -148 -224 -246q-132 -85 -313 -121q-144 -29 -335 -29q-416 0 -651 149q-150 95 -226 246q-72 144 -72 338v691h498v-691q0 -74 17.5 -133t42 -96t67.5 -63.5t76.5 -39.5t87.5 -19.5t82.5 -7.5
t77.5 -1q37 0 58.5 0.5t62.5 3.5t67 9t63.5 18.5t62 30t51.5 45t43 62.5t26.5 84t10.5 107v691z" />
    <glyph glyph-name="uacute" unicode="&#xfa;" horiz-adv-x="2117" 
d="M1510 1745l-333 -249h-265l199 249h399zM1507 1383h498v-691q0 -192 -71 -337q-73 -148 -224 -246q-132 -85 -313 -121q-144 -29 -335 -29q-416 0 -651 149q-150 95 -226 246q-72 144 -72 338v691h498v-691q0 -74 17.5 -133t42 -96t67.5 -63.5t76.5 -39.5t87.5 -19.5
t82.5 -7.5t77.5 -1q37 0 58.5 0.5t62.5 3.5t67 9t63.5 18.5t62 30t51.5 45t43 62.5t26.5 84t10.5 107v691z" />
    <glyph glyph-name="ucircumflex" unicode="&#xfb;" horiz-adv-x="2117" 
d="M925 1494h-329l-1 1l298 245h331l298 -245l-1 -1h-329l-133 110zM1507 1383h498v-691q0 -192 -71 -337q-73 -148 -224 -246q-132 -85 -313 -121q-144 -29 -335 -29q-416 0 -651 149q-150 95 -226 246q-72 144 -72 338v691h498v-691q0 -74 17.5 -133t42 -96t67.5 -63.5
t76.5 -39.5t87.5 -19.5t82.5 -7.5t77.5 -1q37 0 58.5 0.5t62.5 3.5t67 9t63.5 18.5t62 30t51.5 45t43 62.5t26.5 84t10.5 107v691z" />
    <glyph glyph-name="udieresis" unicode="&#xfc;" horiz-adv-x="2117" 
d="M961 1510h-266v222h266v-222zM1426 1510h-266v222h266v-222zM1507 1383h498v-691q0 -192 -71 -337q-73 -148 -224 -246q-132 -85 -313 -121q-144 -29 -335 -29q-416 0 -651 149q-150 95 -226 246q-72 144 -72 338v691h498v-691q0 -74 17.5 -133t42 -96t67.5 -63.5
t76.5 -39.5t87.5 -19.5t82.5 -7.5t77.5 -1q37 0 58.5 0.5t62.5 3.5t67 9t63.5 18.5t62 30t51.5 45t43 62.5t26.5 84t10.5 107v691z" />
    <glyph glyph-name="yacute" unicode="&#xfd;" horiz-adv-x="2050" 
d="M1466 1744l-332 -249h-266l199 249h399zM1433 1383h613l-772 -896v-487h-498v487l-772 896h613l408 -473z" />
    <glyph glyph-name="thorn" unicode="&#xfe;" horiz-adv-x="1865" 
d="M1756 889q48 -94 48 -199q0 -104 -48 -198q-47 -93 -131 -163q-82 -69 -195 -109q-115 -41 -239 -41h-549v-180h-499v1385h499v-182h549q124 0 239 -41q113 -40 195 -109q84 -70 131 -163zM1090 512q89 0 152 52.5t63 126.5t-63 126t-152 52h-448v-357h448z" />
    <glyph glyph-name="ydieresis" unicode="&#xff;" horiz-adv-x="2050" 
d="M918 1509h-266v221h266v-221zM1383 1509h-266v221h266v-221zM1433 1383h613l-772 -896v-487h-498v487l-772 896h613l408 -473z" />
    <glyph glyph-name="dotlessi" unicode="&#x131;" horiz-adv-x="571" 
d="M451 0h-332v1153h332v-1153z" />
    <glyph glyph-name="Lslash" unicode="&#x141;" horiz-adv-x="2039" 
d="M836 332h1163v-333h-1661v336l-104 -86l-211 176l315 263v696h498v-281l266 222l212 -177l-478 -397v-419z" />
    <glyph glyph-name="lslash" unicode="&#x142;" horiz-adv-x="2039" 
d="M836 332h1163v-333h-1661v336l-104 -86l-211 176l315 263v696h498v-281l266 222l212 -177l-478 -397v-419z" />
    <glyph glyph-name="OE" unicode="&#x152;" horiz-adv-x="2768" 
d="M2662 1384v-332h-920v-194h820v-332h-820v-194h920v-332h-1418h-172q-744 -8 -929 383q-63 125 -63 309t63 309q186 390 929 382q3 0 78 0.5t94 0.5h1418zM1244 321v742h-172q-389 0 -481 -200q-31 -59 -31 -171t31 -171q92 -200 481 -200h172z" />
    <glyph glyph-name="oe" unicode="&#x153;" horiz-adv-x="2768" 
d="M2662 1384v-332h-920v-194h820v-332h-820v-194h920v-332h-1418h-172q-744 -8 -929 382q-63 125 -63 309.5t63 309.5q186 390 929 382q3 0 78 0.5t94 0.5h1418zM1244 321v742h-172q-389 0 -481 -200q-31 -59 -31 -171t31 -171q92 -200 481 -200h172z" />
    <glyph glyph-name="Scaron" unicode="&#x160;" horiz-adv-x="2152" 
d="M1246 1494h-331l-298 245l1 1h329l133 -110l134 110h329l1 -1zM2011 603q43 -68 43 -174q0 -105 -41 -183q-59 -113 -199 -181q-221 -107 -735 -107h-2h-2q-513 0 -734 107q-140 68 -199 181q-39 73 -41 169v46h516l-1 -3v-6.5v-6.5q0 -155 461 -155q251 0 356.5 26.5
t105.5 97.5q0 25 -14.5 42t-43 27t-72.5 16t-100.5 9t-129.5 6q-67 2 -104 4q-137 3 -234 7.5t-198 15.5t-172 29t-137 45.5t-113 68t-81 94.5q-44 70 -44 175q0 104 42 183q58 112 199 180q223 108 735 108h1h1q512 0 735 -108q142 -69 200 -180q39 -74 41 -167v-47h-516
v15q0 155 -461 155q-250 0 -355.5 -27t-105.5 -98q0 -58 75 -74.5t279 -24.5q70 -2 109 -4q137 -3 234 -8t198 -15.5t172.5 -28.5t137.5 -46t113 -68.5t81 -94.5z" />
    <glyph glyph-name="scaron" unicode="&#x161;" horiz-adv-x="2152" 
d="M1246 1494h-331l-298 245l1 1h329l133 -110l134 110h329l1 -1zM2011 603q43 -68 43 -174q0 -105 -41 -183q-61 -114 -199 -181q-221 -107 -735 -107h-2h-2q-513 0 -734 107q-140 68 -199 181q-39 73 -41 169v46h516l-1 -3v-6.5v-6.5q0 -155 461 -155q251 0 356.5 26.5
t105.5 97.5q0 25 -14.5 42t-43 27t-72.5 16t-100.5 9t-129.5 6q-67 2 -104 4q-137 3 -234 7.5t-198 15.5t-172 29t-137 45.5t-113 68t-81 94.5q-44 70 -44 175q0 104 42 183q58 112 199 180q223 108 735 108h1h1q512 0 735 -108q142 -69 200 -180q39 -74 41 -167v-47h-516
v15q0 155 -461 155q-250 0 -355.5 -27t-105.5 -98q0 -58 75 -74.5t279 -24.5q70 -2 109 -4q137 -3 234 -8t198 -15.5t172.5 -28.5t137.5 -46t113 -68.5t81 -94.5z" />
    <glyph glyph-name="Ydieresis" unicode="&#x178;" horiz-adv-x="2050" 
d="M918 1509h-266v221h266v-221zM1383 1509h-266v221h266v-221zM1433 1383h613l-772 -896v-487h-498v487l-772 896h613l408 -473z" />
    <glyph glyph-name="Zcaron" unicode="&#x17d;" horiz-adv-x="2039" 
d="M1184 1494h-331l-298 245l1 1h329l133 -110l134 110h329l1 -1zM90 1383h1859v-332l-1067 -719h1067v-332h-1859v332l1067 719h-1067v332z" />
    <glyph glyph-name="zcaron" unicode="&#x17e;" horiz-adv-x="2039" 
d="M1184 1494h-331l-298 245l1 1h329l133 -110l134 110h329l1 -1zM90 1383h1859v-332l-1067 -719h1067v-332h-1859v332l1067 719h-1067v332z" />
    <glyph glyph-name="circumflex" unicode="&#x2c6;" horiz-adv-x="856" 
d="M565 1379l248 -245l-1 -1h-274l-111 110l-111 -110h-274l-1 1l248 245h276z" />
    <glyph glyph-name="caron" unicode="&#x2c7;" horiz-adv-x="851" 
d="M810 1383l1 -1l-248 -245h-276l-248 245l1 1h274l111 -110l111 110h274z" />
    <glyph glyph-name="ilde" unicode="&#x2dc;" horiz-adv-x="884" 
d="M696 1378l138 -139q-50 -50 -110 -76q-54 -24 -115 -27h-18q-66 0 -176 29q-80 24 -132.5 22t-94.5 -44l-139 139q49 49 109 75q54 23 114 26q72 3 192 -28q81 -25 134.5 -23t97.5 46z" />
    <glyph glyph-name="endash" unicode="&#x2013;" horiz-adv-x="1247" 
d="M1177 523h-1107v332h1107v-332z" />
    <glyph glyph-name="emdash" unicode="&#x2014;" horiz-adv-x="1802" 
d="M1731 526h-1661v332h1661v-332z" />
    <glyph glyph-name="quoteleft" unicode="&#x2018;" horiz-adv-x="438" 
d="M246 1162h111v-277h-277v277l138 221h97z" />
    <glyph glyph-name="quoteright" unicode="&#x2019;" horiz-adv-x="436" 
d="M78 1383h277v-277l-139 -221h-97l70 221h-111v277z" />
    <glyph glyph-name="quotesinglbase" unicode="&#x201a;" horiz-adv-x="405" 
d="M63 280h277v-277l-138 -221h-97l69 221h-111v277z" />
    <glyph glyph-name="quoteleftreversed" unicode="&#x201b;" horiz-adv-x="438" 
d="M357 1379v-276h-111l69 -222h-97l-138 222v276h277z" />
    <glyph glyph-name="quotedblleft" unicode="&#x201c;" horiz-adv-x="825" 
d="M634 1162h110v-277h-277v277l139 221h97zM315 1383l-69 -221h111v-277h-277v277l138 221h97z" />
    <glyph glyph-name="quotedblright" unicode="&#x201d;" horiz-adv-x="823" 
d="M78 1106v277h277v-277l-139 -221h-97l70 221h-111zM465 1383h277v-277l-138 -221h-97l69 221h-111v277z" />
    <glyph glyph-name="quotedblbase" unicode="&#x201e;" horiz-adv-x="792" 
d="M63 3v276h277v-276l-138 -222h-97l69 222h-111zM451 279h277v-276l-138 -222h-97l69 222h-111v276z" />
    <glyph glyph-name="dagger" unicode="&#x2020;" horiz-adv-x="1280" 
d="M806 1103h387v-332h-387v-1078h-332v1078h-388v332h388v277h332v-277z" />
    <glyph glyph-name="daggerdbl" unicode="&#x2021;" horiz-adv-x="1345" 
d="M1226 775h-387v-473h387v-333h-387v-276h-333v276h-387v333h387v473h-387v332h387v277h333v-277h387v-332z" />
    <glyph glyph-name="bullet" unicode="&#x2022;" horiz-adv-x="669" 
d="M334 436q-106 0 -181 75t-75 181t75 181t181 75t181 -75t75 -181t-75 -181t-181 -75z" />
    <glyph glyph-name="ellipsis" unicode="&#x2026;" horiz-adv-x="1263" 
d="M769 0h-276v277h276v-277zM1199 0h-277v277h277v-277zM340 0h-277v277h277v-277z" />
    <glyph glyph-name="perthousand" unicode="&#x2030;" horiz-adv-x="3442" 
d="M3336 402q26 -51 28 -116q0 -96 -52 -160t-131 -100q-51 -23 -87 -34.5t-113 -21t-190 -9.5q-162 0 -241.5 15t-157.5 53q-1 -1 -3.5 -2t-4.5 -1q-52 -23 -87 -34.5t-112 -21t-190 -9.5q-167 0 -248 16.5t-165 58.5q-93 47 -132 124q-26 51 -28 116q0 96 52 160t131 100
q51 23 87 34.5t113 21t190 9.5q162 0 241.5 -15t157.5 -53q1 1 3.5 2t4.5 1q52 23 87 34.5t112 21t190 9.5q167 0 248 -16.5t165 -58.5q93 -47 132 -124zM2219 264v12q0 20 1 29q-26 67 -225 67q-94 0 -161.5 -25t-67.5 -71q0 -86 229 -86q82 0 145 19t79 55zM2791 190
q60 0 110.5 10t84.5 32.5t34 53.5q0 86 -229 86q-82 0 -145 -19t-79 -55v-12q0 -20 -1 -29q26 -67 225 -67zM1040 852q-75 -34 -151.5 -49t-238.5 -15q-168 0 -248 16t-164 58q-94 47 -133 125q-25 49 -27 116q0 96 52 160t131 100q51 23 87 34.5t112.5 20.5t189.5 9
q168 0 248.5 -16t164.5 -58q93 -47 132 -124q26 -51 28 -116q0 -96 -52.5 -160.5t-130.5 -100.5zM421 1103q0 -86 229 -86q60 0 110.5 10t84.5 32.5t34 53.5q0 85 -229 85q-94 0 -161.5 -24.5t-67.5 -70.5zM1671 1386h489l-1179 -1383h-488z" />
    <glyph glyph-name="guilsinglleft" unicode="&#x2039;" horiz-adv-x="700" 
d="M565 1417v-484l-228 -241l228 -242v-484l-456 484v484z" />
    <glyph glyph-name="guilsinglright" unicode="&#x203a;" horiz-adv-x="700" 
d="M133 1417l457 -484v-484l-457 -484v484l228 242l-228 242v484z" />
    <glyph glyph-name="fraction" unicode="&#x2044;" horiz-adv-x="1912" 
d="M1417 1384h470l-1384 -1385h-470z" />
    <glyph glyph-name="Euro" unicode="&#x20ac;" horiz-adv-x="2465" 
d="M1834 526h526q-17 -101 -54 -173q-38 -81 -98 -144.5t-137.5 -105.5t-163.5 -71t-189 -44t-201 -21t-212 -5q-136 -2 -252.5 7t-236.5 35.5t-214 70t-172.5 115.5t-124.5 168q-28 57 -45 128h-170v138h149q-5 68 0 135h-149v138h170q17 71 45 128q46 96 124.5 168
t172.5 115.5t214 69.5t236.5 35t252.5 8q136 2 252.5 -7t237 -35.5t214.5 -70t172.5 -115.5t124.5 -168q35 -68 53 -168h-527q-3 7 -9 19q-47 104 -167 160t-351 56q-398 0 -507 -195h546v-138h-587q-8 -67 0 -135h587v-138h-546q110 -195 507 -195q232 0 352.5 54.5
t165.5 155.5q6 11 11 25z" />
    <glyph glyph-name="trademark" unicode="&#x2122;" horiz-adv-x="894" 
d="M53 1384h335v-73h-122v-231h-91v231h-122v73zM711 1384h115v-304h-92v140l-66 -140h-92l-67 140v-140h-91v304h115l89 -189z" />
    <glyph glyph-name="minus" unicode="&#x2212;" horiz-adv-x="1247" 
d="M1177 530h-1107v332h1107v-332z" />
    <glyph glyph-name="zero.alt1" unicode="&#xf000;" horiz-adv-x="2355" 
d="M2178 353q-38 -81 -98 -144.5t-137.5 -105.5t-163.5 -71t-189 -44t-201 -21t-212 -5q-136 -2 -252.5 7t-236.5 35.5t-214 70t-172.5 115.5t-124.5 168q-68 134 -68 333.5t68 333.5q46 96 124.5 168t172.5 115.5t214 70t236.5 35.5t252.5 8q136 2 252.5 -7t236.5 -35.5
t214 -70.5t172.5 -116t124.5 -168q69 -135 69 -336t-68 -336zM1695 876q-47 104 -167 160t-351 56q-419 0 -518 -216q-33 -63 -33 -184t33 -184q99 -217 518 -217q232 0 352.5 54.5t165.5 155.5q33 63 33.5 187t-33.5 188z" />
    </font>
</defs>
</svg>
