<svg xmlns="http://www.w3.org/2000/svg" width="55" height="55" viewBox="0 0 55 55"><defs><style>.a{fill:#5a2cfb;}.b{fill:#fff;}</style></defs><rect class="a" width="55" height="55" rx="10"/><g transform="translate(8 12)"><path class="b" d="M306.218,240.253a.622.622,0,0,0-.812.368.648.648,0,0,0,.361.832c2.142.846,3.37,1.914,3.37,2.927,0,1.6-3.32,3.661-9.472,4.315a.64.64,0,0,0-.56.707.633.633,0,0,0,.624.577l.064,0c6.439-.684,10.6-2.879,10.6-5.6C310.393,242.76,308.95,241.332,306.218,240.253Z" transform="translate(-271.347 -220.895)"/><path class="b" d="M11.5,12.354a.655.655,0,0,1,0-.911l1.472-1.508C6.436,9.67,0,7.67,0,4.171,0,2.55,1.444,1.122,4.175.043a.626.626,0,0,1,.813.368.648.648,0,0,1-.361.832C2.486,2.09,1.258,3.157,1.258,4.171c0,1.987,4.712,4.186,11.655,4.475L11.5,7.2a.657.657,0,0,1,0-.911.618.618,0,0,1,.889,0l2.516,2.575a.656.656,0,0,1,0,.911l-2.516,2.575a.62.62,0,0,1-.89,0Z" transform="translate(0 19.314)"/><g transform="translate(6.398)"><g transform="translate(7.833 7.74)"><g transform="translate(0 0)"><path class="b" d="M175.869,127.989a5.329,5.329,0,1,0,5.2,5.327A5.272,5.272,0,0,0,175.869,127.989Zm0,9.132a3.806,3.806,0,1,1,3.716-3.805A3.766,3.766,0,0,1,175.869,137.121Z" transform="translate(-170.666 -127.989)"/></g></g><g transform="translate(0 0)"><path class="b" d="M86.237,46.141H81.343l-.9-2.038a2.277,2.277,0,0,0-2.058-1.446H75.683A2.277,2.277,0,0,0,73.625,44.1l-.9,2.04H67.834A4.125,4.125,0,0,0,64,50.5V60.95a4.125,4.125,0,0,0,3.834,4.356h18.4a4.125,4.125,0,0,0,3.834-4.356V50.5A4.124,4.124,0,0,0,86.237,46.141Zm2.3,14.809a2.475,2.475,0,0,1-2.3,2.613h-18.4a2.475,2.475,0,0,1-2.3-2.613V50.5a2.475,2.475,0,0,1,2.3-2.613H73.2a.764.764,0,0,0,.686-.481L75,44.879a.756.756,0,0,1,.686-.481h2.705a.755.755,0,0,1,.686.483l1.11,2.521a.764.764,0,0,0,.686.481h5.368a2.475,2.475,0,0,1,2.3,2.613Z" transform="translate(-64 -42.656)"/></g></g></g></svg>